<svg xmlns="http://www.w3.org/2000/svg" xmlns:xlink="http://www.w3.org/1999/xlink" width="500" zoomAndPan="magnify" viewBox="0 0 375 374.999991" height="500" preserveAspectRatio="xMidYMid meet" version="1.0"><rect x="-37.5" width="450" fill="#ffffff" y="-37.499999" height="449.999989" fill-opacity="1"/><rect x="-37.5" width="450" fill="#ffffff" y="-37.499999" height="449.999989" fill-opacity="1"/><rect x="-37.5" width="450" fill="#ffffff" y="-37.499999" height="449.999989" fill-opacity="1"/><rect x="-37.5" width="450" fill="#ffffff" y="-37.499999" height="449.999989" fill-opacity="1"/><path fill="#35568a" d="M 187.5 0 C 84.082031 0 0 84.082031 0 187.5 C 0 290.917969 84.082031 375 187.5 375 C 290.917969 375 375 290.917969 375 187.5 C 375 84.082031 290.917969 0 187.5 0 Z M 187.5 368.265625 C 87.832031 368.265625 6.734375 287.167969 6.734375 187.5 C 6.734375 87.832031 87.832031 6.734375 187.5 6.734375 C 287.167969 6.734375 368.265625 87.832031 368.265625 187.5 C 368.265625 287.167969 287.167969 368.265625 187.5 368.265625 Z M 226.558594 186.441406 C 241.375 174.703125 250.992188 156.523438 250.992188 136.222656 C 250.992188 100.917969 222.324219 72.25 187.019531 72.25 C 151.710938 72.25 123.042969 100.917969 123.042969 136.222656 C 123.042969 156.617188 132.566406 174.703125 147.480469 186.441406 C 132.28125 192.214844 118.714844 202.410156 108.804688 215.589844 C 97.550781 230.695312 91.585938 248.492188 91.585938 267.253906 C 91.585938 270.332031 91.777344 273.503906 92.066406 276.679688 C 92.257812 278.410156 93.703125 279.664062 95.433594 279.664062 L 278.699219 279.664062 C 280.433594 279.664062 281.875 278.410156 282.066406 276.679688 C 282.453125 273.503906 282.546875 270.425781 282.546875 267.253906 C 282.546875 248.589844 276.585938 230.695312 265.425781 215.6875 C 255.515625 202.507812 241.855469 192.308594 226.558594 186.441406 Z M 129.777344 136.222656 C 129.777344 104.667969 155.464844 78.984375 187.019531 78.984375 C 218.574219 78.984375 244.261719 104.667969 244.261719 136.222656 C 244.261719 167.777344 218.574219 193.464844 187.019531 193.464844 C 155.464844 193.464844 129.777344 167.777344 129.777344 136.222656 Z M 275.527344 272.929688 L 98.511719 272.929688 C 98.414062 271.003906 98.320312 269.175781 98.320312 267.253906 C 98.320312 249.9375 103.804688 233.484375 114.191406 219.632812 C 124.199219 206.355469 138.242188 196.253906 153.925781 191.25 L 154.40625 191.25 C 163.929688 196.929688 175.089844 200.199219 187.019531 200.199219 C 198.949219 200.199219 210.203125 196.929688 219.726562 191.15625 C 219.726562 191.15625 219.824219 191.15625 219.824219 191.25 C 235.601562 196.253906 249.839844 206.355469 259.84375 219.824219 C 270.234375 233.675781 275.621094 250.128906 275.621094 267.347656 C 275.816406 269.175781 275.71875 271.003906 275.527344 272.929688 Z M 275.527344 272.929688 " fill-opacity="1" fill-rule="nonzero"/></svg>