<svg xmlns="http://www.w3.org/2000/svg" xmlns:xlink="http://www.w3.org/1999/xlink" width="500" zoomAndPan="magnify" viewBox="0 0 375 374.999991" height="500" preserveAspectRatio="xMidYMid meet" version="1.0"><defs><clipPath id="id1"><path d="M 18.75 0 L 356.25 0 L 356.25 375 L 18.75 375 Z M 18.75 0 " clip-rule="nonzero"/></clipPath><clipPath id="id2"><path d="M 18.75 268 L 32 268 L 32 282 L 18.75 282 Z M 18.75 268 " clip-rule="nonzero"/></clipPath></defs><rect x="-37.5" width="450" fill="#ffffff" y="-37.499999" height="449.999989" fill-opacity="1"/><rect x="-37.5" width="450" fill="#ffffff" y="-37.499999" height="449.999989" fill-opacity="1"/><rect x="-37.5" width="450" fill="#ffffff" y="-37.499999" height="449.999989" fill-opacity="1"/><path fill="#35568a" d="M 62.5 181.210938 L 87.5 181.210938 C 88.320312 181.210938 89.132812 181.128906 89.9375 180.972656 C 90.742188 180.8125 91.523438 180.574219 92.285156 180.257812 C 93.042969 179.945312 93.761719 179.558594 94.445312 179.105469 C 95.128906 178.648438 95.757812 178.128906 96.339844 177.550781 C 96.917969 176.96875 97.4375 176.339844 97.894531 175.65625 C 98.347656 174.972656 98.734375 174.253906 99.046875 173.496094 C 99.363281 172.734375 99.601562 171.953125 99.761719 171.148438 C 99.917969 170.34375 100 169.53125 100 168.710938 L 100 143.710938 C 100 142.890625 99.917969 142.078125 99.761719 141.273438 C 99.601562 140.46875 99.363281 139.6875 99.046875 138.925781 C 98.734375 138.167969 98.347656 137.449219 97.894531 136.765625 C 97.4375 136.082031 96.917969 135.453125 96.339844 134.871094 C 95.757812 134.292969 95.128906 133.773438 94.445312 133.316406 C 93.761719 132.863281 93.042969 132.476562 92.285156 132.164062 C 91.523438 131.847656 90.742188 131.609375 89.9375 131.449219 C 89.132812 131.289062 88.320312 131.210938 87.5 131.210938 L 62.5 131.210938 C 61.679688 131.210938 60.867188 131.289062 60.0625 131.449219 C 59.257812 131.609375 58.476562 131.847656 57.714844 132.164062 C 56.957031 132.476562 56.238281 132.863281 55.554688 133.316406 C 54.871094 133.773438 54.242188 134.292969 53.660156 134.871094 C 53.082031 135.453125 52.5625 136.082031 52.105469 136.765625 C 51.652344 137.449219 51.265625 138.167969 50.953125 138.925781 C 50.636719 139.6875 50.398438 140.46875 50.238281 141.273438 C 50.078125 142.078125 50 142.890625 50 143.710938 L 50 168.710938 C 50 169.53125 50.078125 170.34375 50.238281 171.148438 C 50.398438 171.953125 50.636719 172.734375 50.953125 173.496094 C 51.265625 174.253906 51.652344 174.972656 52.105469 175.65625 C 52.5625 176.339844 53.082031 176.96875 53.660156 177.550781 C 54.242188 178.128906 54.871094 178.648438 55.554688 179.105469 C 56.238281 179.558594 56.957031 179.945312 57.714844 180.257812 C 58.476562 180.574219 59.257812 180.8125 60.0625 180.972656 C 60.867188 181.128906 61.679688 181.210938 62.5 181.210938 Z M 62.5 143.710938 L 87.5 143.710938 L 87.5 168.710938 L 62.5 168.710938 Z M 62.5 143.710938 " fill-opacity="1" fill-rule="nonzero"/><path fill="#35568a" d="M 137.5 181.210938 L 162.5 181.210938 C 163.320312 181.210938 164.132812 181.128906 164.9375 180.972656 C 165.742188 180.8125 166.523438 180.574219 167.285156 180.257812 C 168.042969 179.945312 168.761719 179.558594 169.445312 179.105469 C 170.128906 178.648438 170.757812 178.128906 171.339844 177.550781 C 171.917969 176.96875 172.4375 176.339844 172.894531 175.65625 C 173.347656 174.972656 173.734375 174.253906 174.046875 173.496094 C 174.363281 172.734375 174.601562 171.953125 174.761719 171.148438 C 174.917969 170.34375 175 169.53125 175 168.710938 L 175 143.710938 C 175 142.890625 174.917969 142.078125 174.761719 141.273438 C 174.601562 140.46875 174.363281 139.6875 174.046875 138.925781 C 173.734375 138.167969 173.347656 137.449219 172.894531 136.765625 C 172.4375 136.082031 171.917969 135.453125 171.339844 134.871094 C 170.757812 134.292969 170.128906 133.773438 169.445312 133.316406 C 168.761719 132.863281 168.042969 132.476562 167.285156 132.164062 C 166.523438 131.847656 165.742188 131.609375 164.9375 131.449219 C 164.132812 131.289062 163.320312 131.210938 162.5 131.210938 L 137.5 131.210938 C 136.679688 131.210938 135.867188 131.289062 135.0625 131.449219 C 134.257812 131.609375 133.476562 131.847656 132.714844 132.164062 C 131.957031 132.476562 131.238281 132.863281 130.554688 133.316406 C 129.871094 133.773438 129.242188 134.292969 128.660156 134.871094 C 128.082031 135.453125 127.5625 136.082031 127.105469 136.765625 C 126.652344 137.449219 126.265625 138.167969 125.953125 138.925781 C 125.636719 139.6875 125.398438 140.46875 125.238281 141.273438 C 125.078125 142.078125 125 142.890625 125 143.710938 L 125 168.710938 C 125 169.53125 125.078125 170.34375 125.238281 171.148438 C 125.398438 171.953125 125.636719 172.734375 125.953125 173.496094 C 126.265625 174.253906 126.652344 174.972656 127.105469 175.65625 C 127.5625 176.339844 128.082031 176.96875 128.660156 177.550781 C 129.242188 178.128906 129.871094 178.648438 130.554688 179.105469 C 131.238281 179.558594 131.957031 179.945312 132.714844 180.257812 C 133.476562 180.574219 134.257812 180.8125 135.0625 180.972656 C 135.867188 181.128906 136.679688 181.210938 137.5 181.210938 Z M 137.5 143.710938 L 162.5 143.710938 L 162.5 168.710938 L 137.5 168.710938 Z M 137.5 143.710938 " fill-opacity="1" fill-rule="nonzero"/><path fill="#35568a" d="M 212.5 181.210938 L 237.5 181.210938 C 238.320312 181.210938 239.132812 181.128906 239.9375 180.972656 C 240.742188 180.8125 241.523438 180.574219 242.285156 180.257812 C 243.042969 179.945312 243.761719 179.558594 244.445312 179.105469 C 245.128906 178.648438 245.757812 178.128906 246.339844 177.550781 C 246.917969 176.96875 247.4375 176.339844 247.894531 175.65625 C 248.347656 174.972656 248.734375 174.253906 249.046875 173.496094 C 249.363281 172.734375 249.601562 171.953125 249.757812 171.148438 C 249.917969 170.34375 250 169.53125 250 168.710938 L 250 143.710938 C 250 142.890625 249.917969 142.078125 249.757812 141.273438 C 249.601562 140.46875 249.363281 139.6875 249.046875 138.925781 C 248.734375 138.167969 248.347656 137.449219 247.894531 136.765625 C 247.4375 136.082031 246.917969 135.453125 246.339844 134.871094 C 245.757812 134.292969 245.128906 133.773438 244.445312 133.316406 C 243.761719 132.863281 243.042969 132.476562 242.285156 132.164062 C 241.523438 131.847656 240.742188 131.609375 239.9375 131.449219 C 239.132812 131.289062 238.320312 131.210938 237.5 131.210938 L 212.5 131.210938 C 211.679688 131.210938 210.867188 131.289062 210.0625 131.449219 C 209.257812 131.609375 208.476562 131.847656 207.714844 132.164062 C 206.957031 132.476562 206.238281 132.863281 205.554688 133.316406 C 204.871094 133.773438 204.242188 134.292969 203.660156 134.871094 C 203.082031 135.453125 202.5625 136.082031 202.105469 136.765625 C 201.652344 137.449219 201.265625 138.167969 200.953125 138.925781 C 200.636719 139.6875 200.398438 140.46875 200.238281 141.273438 C 200.078125 142.078125 200 142.890625 200 143.710938 L 200 168.710938 C 200 169.53125 200.078125 170.34375 200.238281 171.148438 C 200.398438 171.953125 200.636719 172.734375 200.953125 173.496094 C 201.265625 174.253906 201.652344 174.972656 202.105469 175.65625 C 202.5625 176.339844 203.082031 176.96875 203.660156 177.550781 C 204.242188 178.128906 204.871094 178.648438 205.554688 179.105469 C 206.238281 179.558594 206.957031 179.945312 207.714844 180.257812 C 208.476562 180.574219 209.257812 180.8125 210.0625 180.972656 C 210.867188 181.128906 211.679688 181.210938 212.5 181.210938 Z M 212.5 143.710938 L 237.5 143.710938 L 237.5 168.710938 L 212.5 168.710938 Z M 212.5 143.710938 " fill-opacity="1" fill-rule="nonzero"/><path fill="#35568a" d="M 287.5 181.210938 L 312.5 181.210938 C 313.320312 181.210938 314.132812 181.128906 314.9375 180.972656 C 315.742188 180.8125 316.523438 180.574219 317.285156 180.257812 C 318.042969 179.945312 318.761719 179.558594 319.445312 179.105469 C 320.128906 178.648438 320.757812 178.128906 321.339844 177.550781 C 321.917969 176.96875 322.4375 176.339844 322.894531 175.65625 C 323.347656 174.972656 323.734375 174.253906 324.046875 173.496094 C 324.363281 172.734375 324.601562 171.953125 324.761719 171.148438 C 324.917969 170.34375 325 169.53125 325 168.710938 L 325 143.710938 C 325 142.890625 324.917969 142.078125 324.761719 141.273438 C 324.601562 140.46875 324.363281 139.6875 324.046875 138.925781 C 323.734375 138.167969 323.347656 137.449219 322.894531 136.765625 C 322.4375 136.082031 321.917969 135.453125 321.339844 134.871094 C 320.757812 134.292969 320.128906 133.773438 319.445312 133.316406 C 318.761719 132.863281 318.042969 132.476562 317.285156 132.164062 C 316.523438 131.847656 315.742188 131.609375 314.9375 131.449219 C 314.132812 131.289062 313.320312 131.210938 312.5 131.210938 L 287.5 131.210938 C 286.679688 131.210938 285.867188 131.289062 285.0625 131.449219 C 284.257812 131.609375 283.476562 131.847656 282.714844 132.164062 C 281.957031 132.476562 281.238281 132.863281 280.554688 133.316406 C 279.871094 133.773438 279.242188 134.292969 278.660156 134.871094 C 278.082031 135.453125 277.5625 136.082031 277.105469 136.765625 C 276.652344 137.449219 276.265625 138.167969 275.953125 138.925781 C 275.636719 139.6875 275.398438 140.46875 275.238281 141.273438 C 275.078125 142.078125 275 142.890625 275 143.710938 L 275 168.710938 C 275 169.53125 275.078125 170.34375 275.238281 171.148438 C 275.398438 171.953125 275.636719 172.734375 275.953125 173.496094 C 276.265625 174.253906 276.652344 174.972656 277.105469 175.65625 C 277.5625 176.339844 278.082031 176.96875 278.660156 177.550781 C 279.242188 178.128906 279.871094 178.648438 280.554688 179.105469 C 281.238281 179.558594 281.957031 179.945312 282.714844 180.257812 C 283.476562 180.574219 284.257812 180.8125 285.0625 180.972656 C 285.867188 181.128906 286.679688 181.210938 287.5 181.210938 Z M 287.5 143.710938 L 312.5 143.710938 L 312.5 168.710938 L 287.5 168.710938 Z M 287.5 143.710938 " fill-opacity="1" fill-rule="nonzero"/><path fill="#35568a" d="M 50 237.460938 C 50 238.28125 50.078125 239.09375 50.238281 239.898438 C 50.398438 240.703125 50.636719 241.484375 50.953125 242.246094 C 51.265625 243.003906 51.652344 243.722656 52.105469 244.40625 C 52.5625 245.089844 53.082031 245.71875 53.660156 246.300781 C 54.242188 246.878906 54.871094 247.398438 55.554688 247.855469 C 56.238281 248.308594 56.957031 248.695312 57.714844 249.007812 C 58.476562 249.324219 59.257812 249.5625 60.0625 249.71875 C 60.867188 249.878906 61.679688 249.960938 62.5 249.960938 L 87.5 249.960938 C 88.320312 249.960938 89.132812 249.878906 89.9375 249.71875 C 90.742188 249.5625 91.523438 249.324219 92.285156 249.007812 C 93.042969 248.695312 93.761719 248.308594 94.445312 247.855469 C 95.128906 247.398438 95.757812 246.878906 96.339844 246.300781 C 96.917969 245.71875 97.4375 245.089844 97.894531 244.40625 C 98.347656 243.722656 98.734375 243.003906 99.046875 242.246094 C 99.363281 241.484375 99.601562 240.703125 99.761719 239.898438 C 99.917969 239.09375 100 238.28125 100 237.460938 L 100 212.460938 C 100 211.640625 99.917969 210.828125 99.761719 210.023438 C 99.601562 209.21875 99.363281 208.4375 99.046875 207.675781 C 98.734375 206.917969 98.347656 206.199219 97.894531 205.515625 C 97.4375 204.832031 96.917969 204.203125 96.339844 203.621094 C 95.757812 203.042969 95.128906 202.523438 94.445312 202.066406 C 93.761719 201.613281 93.042969 201.226562 92.285156 200.914062 C 91.523438 200.597656 90.742188 200.359375 89.9375 200.199219 C 89.132812 200.039062 88.320312 199.960938 87.5 199.960938 L 62.5 199.960938 C 61.679688 199.960938 60.867188 200.039062 60.0625 200.199219 C 59.257812 200.359375 58.476562 200.597656 57.714844 200.914062 C 56.957031 201.226562 56.238281 201.613281 55.554688 202.066406 C 54.871094 202.523438 54.242188 203.042969 53.660156 203.621094 C 53.082031 204.203125 52.5625 204.832031 52.105469 205.515625 C 51.652344 206.199219 51.265625 206.917969 50.953125 207.675781 C 50.636719 208.4375 50.398438 209.21875 50.238281 210.023438 C 50.078125 210.828125 50 211.640625 50 212.460938 Z M 62.5 212.460938 L 87.5 212.460938 L 87.5 237.460938 L 62.5 237.460938 Z M 62.5 212.460938 " fill-opacity="1" fill-rule="nonzero"/><path fill="#35568a" d="M 125 234.335938 C 125 235.15625 125.078125 235.96875 125.238281 236.773438 C 125.398438 237.578125 125.636719 238.359375 125.953125 239.121094 C 126.265625 239.878906 126.652344 240.597656 127.105469 241.28125 C 127.5625 241.964844 128.082031 242.59375 128.660156 243.175781 C 129.242188 243.753906 129.871094 244.273438 130.554688 244.730469 C 131.238281 245.183594 131.957031 245.570312 132.714844 245.882812 C 133.476562 246.199219 134.257812 246.4375 135.0625 246.597656 C 135.867188 246.753906 136.679688 246.835938 137.5 246.835938 L 162.5 246.835938 C 163.320312 246.835938 164.132812 246.753906 164.9375 246.597656 C 165.742188 246.4375 166.523438 246.199219 167.285156 245.882812 C 168.042969 245.570312 168.761719 245.183594 169.445312 244.730469 C 170.128906 244.273438 170.757812 243.753906 171.339844 243.175781 C 171.917969 242.59375 172.4375 241.964844 172.894531 241.28125 C 173.347656 240.597656 173.734375 239.878906 174.046875 239.121094 C 174.363281 238.359375 174.601562 237.578125 174.761719 236.773438 C 174.917969 235.96875 175 235.15625 175 234.335938 L 175 209.335938 C 175 208.515625 174.917969 207.703125 174.761719 206.898438 C 174.601562 206.09375 174.363281 205.3125 174.046875 204.550781 C 173.734375 203.792969 173.347656 203.074219 172.894531 202.390625 C 172.4375 201.707031 171.917969 201.078125 171.339844 200.496094 C 170.757812 199.917969 170.128906 199.398438 169.445312 198.941406 C 168.761719 198.488281 168.042969 198.101562 167.285156 197.789062 C 166.523438 197.472656 165.742188 197.234375 164.9375 197.074219 C 164.132812 196.914062 163.320312 196.835938 162.5 196.835938 L 137.5 196.835938 C 136.679688 196.835938 135.867188 196.914062 135.0625 197.074219 C 134.257812 197.234375 133.476562 197.472656 132.714844 197.789062 C 131.957031 198.101562 131.238281 198.488281 130.554688 198.941406 C 129.871094 199.398438 129.242188 199.917969 128.660156 200.496094 C 128.082031 201.078125 127.5625 201.707031 127.105469 202.390625 C 126.652344 203.074219 126.265625 203.792969 125.953125 204.550781 C 125.636719 205.3125 125.398438 206.09375 125.238281 206.898438 C 125.078125 207.703125 125 208.515625 125 209.335938 Z M 137.5 209.335938 L 162.5 209.335938 L 162.5 234.335938 L 137.5 234.335938 Z M 137.5 209.335938 " fill-opacity="1" fill-rule="nonzero"/><path fill="#35568a" d="M 200 234.335938 C 200 235.15625 200.078125 235.96875 200.238281 236.773438 C 200.398438 237.578125 200.636719 238.359375 200.953125 239.121094 C 201.265625 239.878906 201.652344 240.597656 202.105469 241.28125 C 202.5625 241.964844 203.082031 242.59375 203.660156 243.175781 C 204.242188 243.753906 204.871094 244.273438 205.554688 244.730469 C 206.238281 245.183594 206.957031 245.570312 207.714844 245.882812 C 208.476562 246.199219 209.257812 246.4375 210.0625 246.597656 C 210.867188 246.753906 211.679688 246.835938 212.5 246.835938 L 237.5 246.835938 C 238.320312 246.835938 239.132812 246.753906 239.9375 246.597656 C 240.742188 246.4375 241.523438 246.199219 242.285156 245.882812 C 243.042969 245.570312 243.761719 245.183594 244.445312 244.730469 C 245.128906 244.273438 245.757812 243.753906 246.339844 243.175781 C 246.917969 242.59375 247.4375 241.964844 247.894531 241.28125 C 248.347656 240.597656 248.734375 239.878906 249.046875 239.121094 C 249.363281 238.359375 249.601562 237.578125 249.757812 236.773438 C 249.917969 235.96875 250 235.15625 250 234.335938 L 250 209.335938 C 250 208.515625 249.917969 207.703125 249.757812 206.898438 C 249.601562 206.09375 249.363281 205.3125 249.046875 204.550781 C 248.734375 203.792969 248.347656 203.074219 247.894531 202.390625 C 247.4375 201.707031 246.917969 201.078125 246.339844 200.496094 C 245.757812 199.917969 245.128906 199.398438 244.445312 198.941406 C 243.761719 198.488281 243.042969 198.101562 242.285156 197.789062 C 241.523438 197.472656 240.742188 197.234375 239.9375 197.074219 C 239.132812 196.914062 238.320312 196.835938 237.5 196.835938 L 212.5 196.835938 C 211.679688 196.835938 210.867188 196.914062 210.0625 197.074219 C 209.257812 197.234375 208.476562 197.472656 207.714844 197.789062 C 206.957031 198.101562 206.238281 198.488281 205.554688 198.941406 C 204.871094 199.398438 204.242188 199.917969 203.660156 200.496094 C 203.082031 201.078125 202.5625 201.707031 202.105469 202.390625 C 201.652344 203.074219 201.265625 203.792969 200.953125 204.550781 C 200.636719 205.3125 200.398438 206.09375 200.238281 206.898438 C 200.078125 207.703125 200 208.515625 200 209.335938 Z M 212.5 209.335938 L 237.5 209.335938 L 237.5 234.335938 L 212.5 234.335938 Z M 212.5 209.335938 " fill-opacity="1" fill-rule="nonzero"/><path fill="#35568a" d="M 275 234.335938 C 275 235.15625 275.078125 235.96875 275.238281 236.773438 C 275.398438 237.578125 275.636719 238.359375 275.953125 239.121094 C 276.265625 239.878906 276.652344 240.597656 277.105469 241.28125 C 277.5625 241.964844 278.082031 242.59375 278.660156 243.175781 C 279.242188 243.753906 279.871094 244.273438 280.554688 244.730469 C 281.238281 245.183594 281.957031 245.570312 282.714844 245.882812 C 283.476562 246.199219 284.257812 246.4375 285.0625 246.597656 C 285.867188 246.753906 286.679688 246.835938 287.5 246.835938 L 312.5 246.835938 C 313.320312 246.835938 314.132812 246.753906 314.9375 246.597656 C 315.742188 246.4375 316.523438 246.199219 317.285156 245.882812 C 318.042969 245.570312 318.761719 245.183594 319.445312 244.730469 C 320.128906 244.273438 320.757812 243.753906 321.339844 243.175781 C 321.917969 242.59375 322.4375 241.964844 322.894531 241.28125 C 323.347656 240.597656 323.734375 239.878906 324.046875 239.121094 C 324.363281 238.359375 324.601562 237.578125 324.761719 236.773438 C 324.917969 235.96875 325 235.15625 325 234.335938 L 325 209.335938 C 325 208.515625 324.917969 207.703125 324.761719 206.898438 C 324.601562 206.09375 324.363281 205.3125 324.046875 204.550781 C 323.734375 203.792969 323.347656 203.074219 322.894531 202.390625 C 322.4375 201.707031 321.917969 201.078125 321.339844 200.496094 C 320.757812 199.917969 320.128906 199.398438 319.445312 198.941406 C 318.761719 198.488281 318.042969 198.101562 317.285156 197.789062 C 316.523438 197.472656 315.742188 197.234375 314.9375 197.074219 C 314.132812 196.914062 313.320312 196.835938 312.5 196.835938 L 287.5 196.835938 C 286.679688 196.835938 285.867188 196.914062 285.0625 197.074219 C 284.257812 197.234375 283.476562 197.472656 282.714844 197.789062 C 281.957031 198.101562 281.238281 198.488281 280.554688 198.941406 C 279.871094 199.398438 279.242188 199.917969 278.660156 200.496094 C 278.082031 201.078125 277.5625 201.707031 277.105469 202.390625 C 276.652344 203.074219 276.265625 203.792969 275.953125 204.550781 C 275.636719 205.3125 275.398438 206.09375 275.238281 206.898438 C 275.078125 207.703125 275 208.515625 275 209.335938 Z M 287.5 209.335938 L 312.5 209.335938 L 312.5 234.335938 L 287.5 234.335938 Z M 287.5 209.335938 " fill-opacity="1" fill-rule="nonzero"/><path fill="#35568a" d="M 50 299.960938 C 50 300.78125 50.078125 301.59375 50.238281 302.398438 C 50.398438 303.203125 50.636719 303.984375 50.953125 304.746094 C 51.265625 305.503906 51.652344 306.222656 52.105469 306.90625 C 52.5625 307.589844 53.082031 308.21875 53.660156 308.800781 C 54.242188 309.378906 54.871094 309.898438 55.554688 310.355469 C 56.238281 310.808594 56.957031 311.195312 57.714844 311.507812 C 58.476562 311.824219 59.257812 312.058594 60.0625 312.21875 C 60.867188 312.378906 61.679688 312.460938 62.5 312.460938 L 87.5 312.460938 C 88.320312 312.460938 89.132812 312.378906 89.9375 312.21875 C 90.742188 312.0625 91.523438 311.824219 92.285156 311.507812 C 93.042969 311.195312 93.761719 310.808594 94.445312 310.355469 C 95.128906 309.898438 95.757812 309.378906 96.339844 308.800781 C 96.917969 308.21875 97.4375 307.589844 97.894531 306.90625 C 98.347656 306.222656 98.734375 305.503906 99.046875 304.746094 C 99.363281 303.984375 99.601562 303.203125 99.761719 302.398438 C 99.917969 301.59375 100 300.78125 100 299.960938 L 100 274.960938 C 100 274.140625 99.917969 273.328125 99.761719 272.523438 C 99.601562 271.71875 99.363281 270.9375 99.046875 270.175781 C 98.734375 269.417969 98.347656 268.699219 97.894531 268.015625 C 97.4375 267.332031 96.917969 266.703125 96.339844 266.121094 C 95.757812 265.542969 95.128906 265.023438 94.445312 264.566406 C 93.761719 264.113281 93.042969 263.726562 92.285156 263.414062 C 91.523438 263.097656 90.742188 262.859375 89.9375 262.699219 C 89.132812 262.539062 88.320312 262.460938 87.5 262.460938 L 62.5 262.460938 C 61.679688 262.460938 60.867188 262.539062 60.0625 262.699219 C 59.257812 262.859375 58.476562 263.097656 57.714844 263.414062 C 56.957031 263.726562 56.238281 264.113281 55.554688 264.566406 C 54.871094 265.023438 54.242188 265.542969 53.660156 266.121094 C 53.082031 266.703125 52.5625 267.332031 52.105469 268.015625 C 51.652344 268.699219 51.265625 269.417969 50.953125 270.175781 C 50.636719 270.9375 50.398438 271.71875 50.238281 272.523438 C 50.078125 273.328125 50 274.140625 50 274.960938 Z M 62.5 274.960938 L 87.5 274.960938 L 87.5 299.960938 L 62.5 299.960938 Z M 62.5 274.960938 " fill-opacity="1" fill-rule="nonzero"/><path fill="#35568a" d="M 125 299.960938 C 125 300.78125 125.078125 301.59375 125.238281 302.398438 C 125.398438 303.203125 125.636719 303.984375 125.953125 304.746094 C 126.265625 305.503906 126.652344 306.222656 127.105469 306.90625 C 127.5625 307.589844 128.082031 308.21875 128.660156 308.800781 C 129.242188 309.378906 129.871094 309.898438 130.554688 310.355469 C 131.238281 310.808594 131.957031 311.195312 132.714844 311.507812 C 133.476562 311.824219 134.257812 312.058594 135.0625 312.21875 C 135.867188 312.378906 136.679688 312.460938 137.5 312.460938 L 162.5 312.460938 C 163.320312 312.460938 164.132812 312.378906 164.9375 312.21875 C 165.742188 312.0625 166.523438 311.824219 167.285156 311.507812 C 168.042969 311.195312 168.761719 310.808594 169.445312 310.355469 C 170.128906 309.898438 170.757812 309.378906 171.339844 308.800781 C 171.917969 308.21875 172.4375 307.589844 172.894531 306.90625 C 173.347656 306.222656 173.734375 305.503906 174.046875 304.746094 C 174.363281 303.984375 174.601562 303.203125 174.761719 302.398438 C 174.917969 301.59375 175 300.78125 175 299.960938 L 175 274.960938 C 175 274.140625 174.917969 273.328125 174.761719 272.523438 C 174.601562 271.71875 174.363281 270.9375 174.046875 270.175781 C 173.734375 269.417969 173.347656 268.699219 172.894531 268.015625 C 172.4375 267.332031 171.917969 266.703125 171.339844 266.121094 C 170.757812 265.542969 170.128906 265.023438 169.445312 264.566406 C 168.761719 264.113281 168.042969 263.726562 167.285156 263.414062 C 166.523438 263.097656 165.742188 262.859375 164.9375 262.699219 C 164.132812 262.539062 163.320312 262.460938 162.5 262.460938 L 137.5 262.460938 C 136.679688 262.460938 135.867188 262.539062 135.0625 262.699219 C 134.257812 262.859375 133.476562 263.097656 132.714844 263.414062 C 131.957031 263.726562 131.238281 264.113281 130.554688 264.566406 C 129.871094 265.023438 129.242188 265.542969 128.660156 266.121094 C 128.082031 266.703125 127.5625 267.332031 127.105469 268.015625 C 126.652344 268.699219 126.265625 269.417969 125.953125 270.175781 C 125.636719 270.9375 125.398438 271.71875 125.238281 272.523438 C 125.078125 273.328125 125 274.140625 125 274.960938 Z M 137.5 274.960938 L 162.5 274.960938 L 162.5 299.960938 L 137.5 299.960938 Z M 137.5 274.960938 " fill-opacity="1" fill-rule="nonzero"/><path fill="#35568a" d="M 200 299.960938 C 200 300.78125 200.078125 301.59375 200.238281 302.398438 C 200.398438 303.203125 200.636719 303.984375 200.953125 304.746094 C 201.265625 305.503906 201.652344 306.222656 202.105469 306.90625 C 202.5625 307.589844 203.082031 308.21875 203.660156 308.800781 C 204.242188 309.378906 204.871094 309.898438 205.554688 310.355469 C 206.238281 310.808594 206.957031 311.195312 207.714844 311.507812 C 208.476562 311.824219 209.257812 312.058594 210.0625 312.21875 C 210.867188 312.378906 211.679688 312.460938 212.5 312.460938 L 237.5 312.460938 C 238.320312 312.460938 239.132812 312.378906 239.9375 312.21875 C 240.742188 312.0625 241.523438 311.824219 242.285156 311.507812 C 243.042969 311.195312 243.761719 310.808594 244.445312 310.355469 C 245.128906 309.898438 245.757812 309.378906 246.339844 308.800781 C 246.917969 308.21875 247.4375 307.589844 247.894531 306.90625 C 248.347656 306.222656 248.734375 305.503906 249.046875 304.746094 C 249.363281 303.984375 249.601562 303.203125 249.757812 302.398438 C 249.917969 301.59375 250 300.78125 250 299.960938 L 250 274.960938 C 250 274.140625 249.917969 273.328125 249.757812 272.523438 C 249.601562 271.71875 249.363281 270.9375 249.046875 270.175781 C 248.734375 269.417969 248.347656 268.699219 247.894531 268.015625 C 247.4375 267.332031 246.917969 266.703125 246.339844 266.121094 C 245.757812 265.542969 245.128906 265.023438 244.445312 264.566406 C 243.761719 264.113281 243.042969 263.726562 242.285156 263.414062 C 241.523438 263.097656 240.742188 262.859375 239.9375 262.699219 C 239.132812 262.539062 238.320312 262.460938 237.5 262.460938 L 212.5 262.460938 C 211.679688 262.460938 210.867188 262.539062 210.0625 262.699219 C 209.257812 262.859375 208.476562 263.097656 207.714844 263.414062 C 206.957031 263.726562 206.238281 264.113281 205.554688 264.566406 C 204.871094 265.023438 204.242188 265.542969 203.660156 266.121094 C 203.082031 266.703125 202.5625 267.332031 202.105469 268.015625 C 201.652344 268.699219 201.265625 269.417969 200.953125 270.175781 C 200.636719 270.9375 200.398438 271.71875 200.238281 272.523438 C 200.078125 273.328125 200 274.140625 200 274.960938 Z M 212.5 274.960938 L 237.5 274.960938 L 237.5 299.960938 L 212.5 299.960938 Z M 212.5 274.960938 " fill-opacity="1" fill-rule="nonzero"/><g clip-path="url(#id1)"><path fill="#35568a" d="M 325 24.960938 L 306.25 24.960938 L 306.25 21.835938 C 306.25 21.121094 306.214844 20.40625 306.144531 19.691406 C 306.074219 18.980469 305.96875 18.269531 305.828125 17.566406 C 305.691406 16.867188 305.515625 16.171875 305.308594 15.484375 C 305.101562 14.800781 304.859375 14.125 304.585938 13.464844 C 304.3125 12.804688 304.003906 12.15625 303.667969 11.523438 C 303.328125 10.890625 302.960938 10.277344 302.5625 9.683594 C 302.164062 9.085938 301.738281 8.511719 301.285156 7.957031 C 300.832031 7.40625 300.347656 6.875 299.84375 6.367188 C 299.335938 5.863281 298.804688 5.378906 298.253906 4.925781 C 297.699219 4.472656 297.125 4.046875 296.527344 3.648438 C 295.933594 3.25 295.320312 2.882812 294.6875 2.542969 C 294.054688 2.207031 293.40625 1.898438 292.746094 1.625 C 292.085938 1.351562 291.410156 1.109375 290.726562 0.902344 C 290.039062 0.695312 289.34375 0.519531 288.640625 0.382812 C 287.941406 0.242188 287.230469 0.136719 286.519531 0.0664062 C 285.804688 -0.00390625 285.089844 -0.0390625 284.375 -0.0390625 C 283.660156 -0.0390625 282.945312 -0.00390625 282.230469 0.0664062 C 281.519531 0.136719 280.808594 0.242188 280.105469 0.382812 C 279.40625 0.519531 278.710938 0.695312 278.023438 0.902344 C 277.339844 1.109375 276.664062 1.351562 276.003906 1.625 C 275.34375 1.898438 274.695312 2.207031 274.0625 2.542969 C 273.429688 2.882812 272.816406 3.25 272.222656 3.648438 C 271.625 4.046875 271.050781 4.472656 270.496094 4.925781 C 269.945312 5.378906 269.414062 5.863281 268.90625 6.367188 C 268.402344 6.875 267.917969 7.40625 267.464844 7.957031 C 267.011719 8.511719 266.585938 9.085938 266.1875 9.683594 C 265.789062 10.277344 265.421875 10.890625 265.082031 11.523438 C 264.746094 12.15625 264.4375 12.804688 264.164062 13.464844 C 263.890625 14.125 263.648438 14.800781 263.441406 15.484375 C 263.234375 16.171875 263.058594 16.867188 262.921875 17.566406 C 262.78125 18.269531 262.675781 18.980469 262.605469 19.691406 C 262.535156 20.40625 262.5 21.121094 262.5 21.835938 L 262.5 24.960938 L 209.375 24.960938 L 209.375 21.835938 C 209.375 21.121094 209.339844 20.40625 209.269531 19.691406 C 209.199219 18.980469 209.09375 18.269531 208.953125 17.566406 C 208.816406 16.867188 208.640625 16.171875 208.433594 15.484375 C 208.226562 14.800781 207.984375 14.125 207.710938 13.464844 C 207.4375 12.804688 207.128906 12.15625 206.792969 11.523438 C 206.453125 10.890625 206.085938 10.277344 205.6875 9.683594 C 205.289062 9.085938 204.863281 8.511719 204.410156 7.957031 C 203.957031 7.40625 203.472656 6.875 202.96875 6.367188 C 202.460938 5.863281 201.929688 5.378906 201.378906 4.925781 C 200.824219 4.472656 200.25 4.046875 199.652344 3.648438 C 199.058594 3.25 198.445312 2.882812 197.8125 2.542969 C 197.179688 2.207031 196.53125 1.898438 195.871094 1.625 C 195.210938 1.351562 194.535156 1.109375 193.851562 0.902344 C 193.164062 0.695312 192.46875 0.519531 191.769531 0.382812 C 191.066406 0.242188 190.355469 0.136719 189.644531 0.0664062 C 188.929688 -0.00390625 188.214844 -0.0390625 187.5 -0.0390625 C 186.785156 -0.0390625 186.070312 -0.00390625 185.355469 0.0664062 C 184.644531 0.136719 183.933594 0.242188 183.230469 0.382812 C 182.53125 0.519531 181.835938 0.695312 181.148438 0.902344 C 180.464844 1.109375 179.789062 1.351562 179.128906 1.625 C 178.46875 1.898438 177.820312 2.207031 177.1875 2.542969 C 176.554688 2.882812 175.941406 3.25 175.347656 3.648438 C 174.75 4.046875 174.175781 4.472656 173.621094 4.925781 C 173.070312 5.378906 172.539062 5.863281 172.03125 6.367188 C 171.527344 6.875 171.042969 7.40625 170.589844 7.957031 C 170.136719 8.511719 169.710938 9.085938 169.3125 9.683594 C 168.914062 10.277344 168.546875 10.890625 168.207031 11.523438 C 167.871094 12.15625 167.5625 12.804688 167.289062 13.464844 C 167.015625 14.125 166.773438 14.800781 166.566406 15.484375 C 166.359375 16.171875 166.183594 16.867188 166.046875 17.566406 C 165.90625 18.269531 165.800781 18.980469 165.730469 19.691406 C 165.660156 20.40625 165.625 21.121094 165.625 21.835938 L 165.625 24.960938 L 112.5 24.960938 L 112.5 21.835938 C 112.5 21.121094 112.464844 20.40625 112.394531 19.691406 C 112.324219 18.980469 112.21875 18.269531 112.078125 17.566406 C 111.941406 16.867188 111.765625 16.171875 111.558594 15.484375 C 111.351562 14.800781 111.109375 14.125 110.835938 13.464844 C 110.5625 12.804688 110.253906 12.15625 109.917969 11.523438 C 109.578125 10.890625 109.210938 10.277344 108.8125 9.683594 C 108.414062 9.085938 107.988281 8.511719 107.535156 7.957031 C 107.082031 7.40625 106.597656 6.875 106.09375 6.367188 C 105.585938 5.863281 105.054688 5.378906 104.503906 4.925781 C 103.949219 4.472656 103.375 4.046875 102.777344 3.648438 C 102.183594 3.25 101.570312 2.882812 100.9375 2.542969 C 100.304688 2.207031 99.65625 1.898438 98.996094 1.625 C 98.335938 1.351562 97.660156 1.109375 96.976562 0.902344 C 96.289062 0.695312 95.59375 0.519531 94.894531 0.382812 C 94.191406 0.242188 93.480469 0.136719 92.769531 0.0664062 C 92.054688 -0.00390625 91.339844 -0.0390625 90.625 -0.0390625 C 89.910156 -0.0390625 89.195312 -0.00390625 88.480469 0.0664062 C 87.769531 0.136719 87.058594 0.242188 86.355469 0.382812 C 85.65625 0.519531 84.960938 0.695312 84.273438 0.902344 C 83.589844 1.109375 82.914062 1.351562 82.253906 1.625 C 81.59375 1.898438 80.945312 2.207031 80.3125 2.542969 C 79.679688 2.882812 79.066406 3.25 78.472656 3.648438 C 77.875 4.046875 77.300781 4.472656 76.746094 4.925781 C 76.195312 5.378906 75.664062 5.863281 75.15625 6.367188 C 74.652344 6.875 74.167969 7.40625 73.714844 7.957031 C 73.261719 8.511719 72.835938 9.085938 72.4375 9.683594 C 72.039062 10.277344 71.671875 10.890625 71.332031 11.523438 C 70.996094 12.15625 70.6875 12.804688 70.414062 13.464844 C 70.140625 14.125 69.898438 14.800781 69.691406 15.484375 C 69.484375 16.171875 69.308594 16.867188 69.171875 17.566406 C 69.03125 18.269531 68.925781 18.980469 68.855469 19.691406 C 68.785156 20.40625 68.75 21.121094 68.75 21.835938 L 68.75 24.960938 L 50 24.960938 C 48.976562 24.960938 47.957031 25.011719 46.9375 25.113281 C 45.921875 25.214844 44.910156 25.367188 43.90625 25.566406 C 42.902344 25.769531 41.910156 26.015625 40.933594 26.316406 C 39.953125 26.613281 38.992188 26.957031 38.046875 27.351562 C 37.101562 27.742188 36.179688 28.179688 35.277344 28.664062 C 34.375 29.144531 33.5 29.671875 32.648438 30.238281 C 31.796875 30.808594 30.976562 31.417969 30.1875 32.066406 C 29.394531 32.714844 28.636719 33.402344 27.914062 34.125 C 27.191406 34.847656 26.503906 35.605469 25.855469 36.398438 C 25.207031 37.1875 24.597656 38.007812 24.027344 38.859375 C 23.460938 39.710938 22.933594 40.585938 22.453125 41.488281 C 21.96875 42.390625 21.53125 43.3125 21.140625 44.257812 C 20.746094 45.203125 20.402344 46.164062 20.105469 47.144531 C 19.804688 48.121094 19.558594 49.113281 19.355469 50.117188 C 19.15625 51.121094 19.003906 52.132812 18.902344 53.148438 C 18.800781 54.167969 18.75 55.1875 18.75 56.210938 L 18.75 249.960938 C 18.75 250.371094 18.789062 250.777344 18.871094 251.179688 C 18.949219 251.582031 19.070312 251.972656 19.226562 252.351562 C 19.382812 252.730469 19.574219 253.09375 19.804688 253.433594 C 20.03125 253.773438 20.289062 254.089844 20.582031 254.378906 C 20.871094 254.671875 21.1875 254.929688 21.527344 255.15625 C 21.867188 255.386719 22.230469 255.578125 22.609375 255.734375 C 22.988281 255.890625 23.378906 256.011719 23.78125 256.089844 C 24.183594 256.171875 24.589844 256.210938 25 256.210938 C 25.410156 256.210938 25.816406 256.171875 26.21875 256.089844 C 26.621094 256.011719 27.011719 255.890625 27.390625 255.734375 C 27.769531 255.578125 28.132812 255.386719 28.472656 255.15625 C 28.8125 254.929688 29.128906 254.671875 29.417969 254.378906 C 29.710938 254.089844 29.96875 253.773438 30.195312 253.433594 C 30.425781 253.09375 30.617188 252.730469 30.773438 252.351562 C 30.929688 251.972656 31.050781 251.582031 31.128906 251.179688 C 31.210938 250.777344 31.25 250.371094 31.25 249.960938 L 31.25 112.460938 L 343.75 112.460938 L 343.75 262.460938 C 343.75 262.871094 343.710938 263.277344 343.628906 263.679688 C 343.550781 264.082031 343.429688 264.472656 343.273438 264.851562 C 343.117188 265.230469 342.925781 265.59375 342.695312 265.933594 C 342.46875 266.273438 342.210938 266.589844 341.917969 266.878906 C 341.628906 267.171875 341.3125 267.429688 340.972656 267.65625 C 340.632812 267.886719 340.269531 268.078125 339.890625 268.234375 C 339.511719 268.390625 339.121094 268.511719 338.71875 268.589844 C 338.316406 268.671875 337.910156 268.710938 337.5 268.710938 L 306.25 268.710938 C 305.226562 268.710938 304.207031 268.761719 303.1875 268.863281 C 302.171875 268.964844 301.160156 269.117188 300.15625 269.316406 C 299.152344 269.519531 298.160156 269.765625 297.183594 270.066406 C 296.203125 270.363281 295.242188 270.707031 294.296875 271.101562 C 293.351562 271.492188 292.429688 271.929688 291.527344 272.414062 C 290.625 272.894531 289.75 273.421875 288.898438 273.988281 C 288.046875 274.558594 287.226562 275.167969 286.4375 275.816406 C 285.644531 276.464844 284.886719 277.152344 284.164062 277.875 C 283.441406 278.597656 282.753906 279.355469 282.105469 280.148438 C 281.457031 280.9375 280.847656 281.757812 280.277344 282.609375 C 279.710938 283.460938 279.183594 284.335938 278.703125 285.238281 C 278.21875 286.140625 277.78125 287.0625 277.390625 288.007812 C 276.996094 288.953125 276.652344 289.914062 276.355469 290.894531 C 276.054688 291.871094 275.808594 292.863281 275.605469 293.867188 C 275.40625 294.871094 275.253906 295.882812 275.152344 296.898438 C 275.050781 297.917969 275 298.9375 275 299.960938 L 275 331.210938 C 275 331.621094 274.960938 332.027344 274.878906 332.429688 C 274.800781 332.832031 274.679688 333.222656 274.523438 333.601562 C 274.367188 333.980469 274.175781 334.34375 273.945312 334.683594 C 273.71875 335.023438 273.460938 335.339844 273.167969 335.628906 C 272.878906 335.921875 272.5625 336.179688 272.222656 336.40625 C 271.882812 336.636719 271.519531 336.828125 271.140625 336.984375 C 270.761719 337.140625 270.371094 337.261719 269.96875 337.339844 C 269.566406 337.421875 269.160156 337.460938 268.75 337.460938 L 50 337.078125 C 49.386719 337.078125 48.773438 337.046875 48.164062 336.988281 C 47.550781 336.925781 46.945312 336.835938 46.34375 336.71875 C 45.738281 336.597656 45.144531 336.449219 44.558594 336.269531 C 43.96875 336.09375 43.390625 335.886719 42.824219 335.652344 C 42.257812 335.414062 41.703125 335.152344 41.160156 334.863281 C 40.621094 334.574219 40.09375 334.257812 39.582031 333.917969 C 39.074219 333.578125 38.578125 333.210938 38.105469 332.820312 C 37.628906 332.433594 37.175781 332.019531 36.742188 331.585938 C 36.308594 331.152344 35.894531 330.699219 35.507812 330.222656 C 35.117188 329.75 34.75 329.253906 34.410156 328.746094 C 34.070312 328.234375 33.753906 327.707031 33.464844 327.167969 C 33.175781 326.625 32.914062 326.070312 32.675781 325.503906 C 32.441406 324.9375 32.234375 324.359375 32.058594 323.769531 C 31.878906 323.183594 31.730469 322.589844 31.609375 321.984375 C 31.492188 321.382812 31.402344 320.777344 31.339844 320.164062 C 31.28125 319.554688 31.25 318.941406 31.25 318.328125 L 31.25 299.960938 C 31.25 299.550781 31.210938 299.144531 31.128906 298.742188 C 31.050781 298.339844 30.929688 297.949219 30.773438 297.570312 C 30.617188 297.191406 30.425781 296.828125 30.195312 296.488281 C 29.96875 296.148438 29.710938 295.832031 29.417969 295.542969 C 29.128906 295.25 28.8125 294.992188 28.472656 294.765625 C 28.132812 294.535156 27.769531 294.34375 27.390625 294.1875 C 27.011719 294.03125 26.621094 293.910156 26.21875 293.832031 C 25.816406 293.75 25.410156 293.710938 25 293.710938 C 24.589844 293.710938 24.183594 293.75 23.78125 293.832031 C 23.378906 293.910156 22.988281 294.03125 22.609375 294.1875 C 22.230469 294.34375 21.867188 294.535156 21.527344 294.765625 C 21.1875 294.992188 20.871094 295.25 20.582031 295.542969 C 20.289062 295.832031 20.03125 296.148438 19.804688 296.488281 C 19.574219 296.828125 19.382812 297.191406 19.226562 297.570312 C 19.070312 297.949219 18.949219 298.339844 18.871094 298.742188 C 18.789062 299.144531 18.75 299.550781 18.75 299.960938 L 18.75 343.710938 C 18.75 344.734375 18.800781 345.753906 18.902344 346.773438 C 19.003906 347.789062 19.15625 348.800781 19.355469 349.804688 C 19.558594 350.808594 19.804688 351.800781 20.105469 352.777344 C 20.402344 353.757812 20.746094 354.71875 21.140625 355.664062 C 21.53125 356.609375 21.96875 357.53125 22.453125 358.433594 C 22.933594 359.335938 23.460938 360.210938 24.027344 361.0625 C 24.597656 361.914062 25.207031 362.734375 25.855469 363.523438 C 26.503906 364.316406 27.191406 365.074219 27.914062 365.796875 C 28.636719 366.519531 29.394531 367.207031 30.1875 367.855469 C 30.976562 368.503906 31.796875 369.113281 32.648438 369.683594 C 33.5 370.25 34.375 370.777344 35.277344 371.257812 C 36.179688 371.742188 37.101562 372.179688 38.046875 372.570312 C 38.992188 372.964844 39.953125 373.308594 40.933594 373.605469 C 41.910156 373.902344 42.902344 374.152344 43.90625 374.355469 C 44.910156 374.554688 45.921875 374.707031 46.9375 374.808594 C 47.957031 374.910156 48.976562 374.960938 50 374.960938 L 325 374.960938 C 326.023438 374.960938 327.042969 374.910156 328.0625 374.808594 C 329.078125 374.707031 330.089844 374.554688 331.09375 374.355469 C 332.097656 374.152344 333.089844 373.902344 334.066406 373.605469 C 335.046875 373.308594 336.007812 372.964844 336.953125 372.570312 C 337.898438 372.179688 338.820312 371.742188 339.722656 371.257812 C 340.625 370.777344 341.5 370.25 342.351562 369.683594 C 343.203125 369.113281 344.023438 368.503906 344.8125 367.855469 C 345.605469 367.207031 346.363281 366.519531 347.085938 365.796875 C 347.808594 365.074219 348.496094 364.316406 349.144531 363.523438 C 349.792969 362.734375 350.402344 361.914062 350.972656 361.0625 C 351.539062 360.210938 352.066406 359.335938 352.546875 358.433594 C 353.03125 357.53125 353.46875 356.609375 353.859375 355.664062 C 354.253906 354.71875 354.597656 353.757812 354.894531 352.777344 C 355.191406 351.800781 355.441406 350.808594 355.644531 349.804688 C 355.84375 348.800781 355.996094 347.789062 356.097656 346.773438 C 356.199219 345.753906 356.25 344.734375 356.25 343.710938 L 356.25 56.210938 C 356.25 55.1875 356.199219 54.167969 356.097656 53.148438 C 355.996094 52.132812 355.84375 51.121094 355.644531 50.117188 C 355.441406 49.113281 355.195312 48.121094 354.894531 47.144531 C 354.597656 46.164062 354.253906 45.203125 353.859375 44.257812 C 353.46875 43.3125 353.03125 42.390625 352.546875 41.488281 C 352.066406 40.585938 351.539062 39.710938 350.972656 38.859375 C 350.402344 38.007812 349.792969 37.1875 349.144531 36.398438 C 348.496094 35.605469 347.808594 34.847656 347.085938 34.125 C 346.363281 33.402344 345.605469 32.714844 344.8125 32.066406 C 344.023438 31.417969 343.203125 30.808594 342.351562 30.238281 C 341.5 29.671875 340.625 29.144531 339.722656 28.664062 C 338.820312 28.179688 337.898438 27.742188 336.953125 27.351562 C 336.007812 26.957031 335.046875 26.613281 334.066406 26.316406 C 333.089844 26.015625 332.097656 25.769531 331.09375 25.566406 C 330.089844 25.367188 329.078125 25.214844 328.0625 25.113281 C 327.042969 25.011719 326.023438 24.960938 325 24.960938 Z M 275 21.835938 C 275 21.21875 275.058594 20.609375 275.179688 20.007812 C 275.300781 19.402344 275.476562 18.816406 275.714844 18.25 C 275.949219 17.679688 276.238281 17.140625 276.578125 16.628906 C 276.921875 16.117188 277.3125 15.640625 277.746094 15.207031 C 278.179688 14.773438 278.65625 14.382812 279.167969 14.039062 C 279.679688 13.699219 280.21875 13.410156 280.789062 13.175781 C 281.355469 12.9375 281.941406 12.761719 282.546875 12.640625 C 283.148438 12.519531 283.757812 12.460938 284.375 12.460938 C 284.992188 12.460938 285.601562 12.519531 286.203125 12.640625 C 286.808594 12.761719 287.394531 12.9375 287.960938 13.175781 C 288.53125 13.410156 289.070312 13.699219 289.582031 14.039062 C 290.09375 14.382812 290.570312 14.773438 291.003906 15.207031 C 291.4375 15.640625 291.828125 16.117188 292.171875 16.628906 C 292.511719 17.140625 292.800781 17.679688 293.035156 18.25 C 293.273438 18.816406 293.449219 19.402344 293.570312 20.007812 C 293.691406 20.609375 293.75 21.21875 293.75 21.835938 L 293.75 46.835938 C 293.75 47.453125 293.691406 48.0625 293.570312 48.664062 C 293.449219 49.269531 293.273438 49.855469 293.035156 50.421875 C 292.800781 50.992188 292.511719 51.53125 292.171875 52.042969 C 291.828125 52.554688 291.4375 53.03125 291.003906 53.464844 C 290.570312 53.898438 290.09375 54.289062 289.582031 54.632812 C 289.070312 54.972656 288.53125 55.261719 287.960938 55.496094 C 287.394531 55.734375 286.808594 55.910156 286.203125 56.03125 C 285.601562 56.152344 284.992188 56.210938 284.375 56.210938 C 283.757812 56.210938 283.148438 56.152344 282.546875 56.03125 C 281.941406 55.910156 281.355469 55.734375 280.789062 55.496094 C 280.21875 55.261719 279.679688 54.972656 279.167969 54.632812 C 278.65625 54.289062 278.179688 53.898438 277.746094 53.464844 C 277.3125 53.03125 276.921875 52.554688 276.578125 52.042969 C 276.238281 51.53125 275.949219 50.992188 275.714844 50.421875 C 275.476562 49.855469 275.300781 49.269531 275.179688 48.664062 C 275.058594 48.0625 275 47.453125 275 46.835938 Z M 178.125 21.835938 C 178.125 21.21875 178.183594 20.609375 178.304688 20.007812 C 178.425781 19.402344 178.601562 18.816406 178.839844 18.25 C 179.074219 17.679688 179.363281 17.140625 179.703125 16.628906 C 180.046875 16.117188 180.4375 15.640625 180.871094 15.207031 C 181.304688 14.773438 181.78125 14.382812 182.292969 14.039062 C 182.804688 13.699219 183.34375 13.410156 183.914062 13.175781 C 184.480469 12.9375 185.066406 12.761719 185.671875 12.640625 C 186.273438 12.519531 186.882812 12.460938 187.5 12.460938 C 188.117188 12.460938 188.726562 12.519531 189.328125 12.640625 C 189.933594 12.761719 190.519531 12.9375 191.085938 13.175781 C 191.65625 13.410156 192.195312 13.699219 192.707031 14.039062 C 193.21875 14.382812 193.695312 14.773438 194.128906 15.207031 C 194.5625 15.640625 194.953125 16.117188 195.296875 16.628906 C 195.636719 17.140625 195.925781 17.679688 196.160156 18.25 C 196.398438 18.816406 196.574219 19.402344 196.695312 20.007812 C 196.816406 20.609375 196.875 21.21875 196.875 21.835938 L 196.875 46.835938 C 196.875 47.453125 196.816406 48.0625 196.695312 48.664062 C 196.574219 49.269531 196.398438 49.855469 196.160156 50.421875 C 195.925781 50.992188 195.636719 51.53125 195.296875 52.042969 C 194.953125 52.554688 194.5625 53.03125 194.128906 53.464844 C 193.695312 53.898438 193.21875 54.289062 192.707031 54.632812 C 192.195312 54.972656 191.65625 55.261719 191.085938 55.496094 C 190.519531 55.734375 189.933594 55.910156 189.328125 56.03125 C 188.726562 56.152344 188.117188 56.210938 187.5 56.210938 C 186.882812 56.210938 186.273438 56.152344 185.671875 56.03125 C 185.066406 55.910156 184.480469 55.734375 183.914062 55.496094 C 183.34375 55.261719 182.804688 54.972656 182.292969 54.632812 C 181.78125 54.289062 181.304688 53.898438 180.871094 53.464844 C 180.4375 53.03125 180.046875 52.554688 179.703125 52.042969 C 179.363281 51.53125 179.074219 50.992188 178.839844 50.421875 C 178.601562 49.855469 178.425781 49.269531 178.304688 48.664062 C 178.183594 48.0625 178.125 47.453125 178.125 46.835938 Z M 81.25 21.835938 C 81.25 21.21875 81.308594 20.609375 81.429688 20.007812 C 81.550781 19.402344 81.726562 18.816406 81.964844 18.25 C 82.199219 17.679688 82.488281 17.140625 82.828125 16.628906 C 83.171875 16.117188 83.5625 15.640625 83.996094 15.207031 C 84.429688 14.773438 84.90625 14.382812 85.417969 14.039062 C 85.929688 13.699219 86.46875 13.410156 87.039062 13.175781 C 87.605469 12.9375 88.191406 12.761719 88.796875 12.640625 C 89.398438 12.519531 90.007812 12.460938 90.625 12.460938 C 91.242188 12.460938 91.851562 12.519531 92.453125 12.640625 C 93.058594 12.761719 93.644531 12.9375 94.210938 13.175781 C 94.78125 13.410156 95.320312 13.699219 95.832031 14.039062 C 96.34375 14.382812 96.820312 14.773438 97.253906 15.207031 C 97.6875 15.640625 98.078125 16.117188 98.421875 16.628906 C 98.761719 17.140625 99.050781 17.679688 99.285156 18.25 C 99.523438 18.816406 99.699219 19.402344 99.820312 20.007812 C 99.941406 20.609375 100 21.21875 100 21.835938 L 100 46.835938 C 100 47.453125 99.941406 48.0625 99.820312 48.664062 C 99.699219 49.269531 99.523438 49.855469 99.285156 50.421875 C 99.050781 50.992188 98.761719 51.53125 98.421875 52.042969 C 98.078125 52.554688 97.6875 53.03125 97.253906 53.464844 C 96.820312 53.898438 96.34375 54.289062 95.832031 54.632812 C 95.320312 54.972656 94.78125 55.261719 94.210938 55.496094 C 93.644531 55.734375 93.058594 55.910156 92.453125 56.03125 C 91.851562 56.152344 91.242188 56.210938 90.625 56.210938 C 90.007812 56.210938 89.398438 56.152344 88.796875 56.03125 C 88.191406 55.910156 87.605469 55.734375 87.039062 55.496094 C 86.46875 55.261719 85.929688 54.972656 85.417969 54.632812 C 84.90625 54.289062 84.429688 53.898438 83.996094 53.464844 C 83.5625 53.03125 83.171875 52.554688 82.828125 52.042969 C 82.488281 51.53125 82.199219 50.992188 81.964844 50.421875 C 81.726562 49.855469 81.550781 49.269531 81.429688 48.664062 C 81.308594 48.0625 81.25 47.453125 81.25 46.835938 Z M 31.25 99.960938 L 31.25 56.210938 C 31.25 55.597656 31.28125 54.984375 31.339844 54.375 C 31.402344 53.761719 31.492188 53.15625 31.609375 52.554688 C 31.730469 51.949219 31.878906 51.355469 32.058594 50.769531 C 32.234375 50.179688 32.441406 49.601562 32.675781 49.035156 C 32.914062 48.46875 33.175781 47.914062 33.464844 47.371094 C 33.753906 46.832031 34.070312 46.304688 34.410156 45.792969 C 34.75 45.285156 35.117188 44.789062 35.507812 44.316406 C 35.894531 43.839844 36.308594 43.386719 36.742188 42.953125 C 37.175781 42.519531 37.628906 42.105469 38.105469 41.71875 C 38.578125 41.328125 39.074219 40.960938 39.582031 40.621094 C 40.09375 40.28125 40.621094 39.964844 41.160156 39.675781 C 41.703125 39.386719 42.257812 39.125 42.824219 38.886719 C 43.390625 38.652344 43.96875 38.445312 44.558594 38.269531 C 45.144531 38.089844 45.738281 37.941406 46.34375 37.820312 C 46.945312 37.703125 47.550781 37.613281 48.164062 37.550781 C 48.773438 37.492188 49.386719 37.460938 50 37.460938 L 68.75 37.460938 L 68.75 46.835938 C 68.75 47.550781 68.785156 48.265625 68.855469 48.980469 C 68.925781 49.691406 69.03125 50.402344 69.171875 51.105469 C 69.308594 51.804688 69.484375 52.5 69.691406 53.1875 C 69.898438 53.871094 70.140625 54.546875 70.414062 55.207031 C 70.6875 55.867188 70.996094 56.515625 71.332031 57.148438 C 71.671875 57.78125 72.039062 58.394531 72.4375 58.988281 C 72.835938 59.585938 73.261719 60.160156 73.714844 60.714844 C 74.167969 61.265625 74.652344 61.796875 75.15625 62.304688 C 75.664062 62.808594 76.195312 63.292969 76.746094 63.746094 C 77.300781 64.199219 77.875 64.625 78.472656 65.023438 C 79.066406 65.421875 79.679688 65.789062 80.3125 66.128906 C 80.945312 66.464844 81.59375 66.773438 82.253906 67.046875 C 82.914062 67.320312 83.589844 67.5625 84.273438 67.769531 C 84.960938 67.976562 85.65625 68.152344 86.355469 68.289062 C 87.058594 68.429688 87.769531 68.535156 88.480469 68.605469 C 89.195312 68.675781 89.910156 68.710938 90.625 68.710938 C 91.339844 68.710938 92.054688 68.675781 92.769531 68.605469 C 93.480469 68.535156 94.191406 68.429688 94.894531 68.289062 C 95.59375 68.152344 96.289062 67.976562 96.976562 67.769531 C 97.660156 67.5625 98.335938 67.320312 98.996094 67.046875 C 99.65625 66.773438 100.304688 66.464844 100.9375 66.128906 C 101.570312 65.789062 102.183594 65.421875 102.777344 65.023438 C 103.375 64.625 103.949219 64.199219 104.503906 63.746094 C 105.054688 63.292969 105.585938 62.808594 106.09375 62.304688 C 106.597656 61.796875 107.082031 61.265625 107.535156 60.714844 C 107.988281 60.160156 108.414062 59.585938 108.8125 58.988281 C 109.210938 58.394531 109.578125 57.78125 109.917969 57.148438 C 110.253906 56.515625 110.5625 55.867188 110.835938 55.207031 C 111.109375 54.546875 111.351562 53.871094 111.558594 53.1875 C 111.765625 52.5 111.941406 51.804688 112.078125 51.105469 C 112.21875 50.402344 112.324219 49.691406 112.394531 48.980469 C 112.464844 48.265625 112.5 47.550781 112.5 46.835938 L 112.5 37.460938 L 165.625 37.460938 L 165.625 46.835938 C 165.625 47.550781 165.660156 48.265625 165.730469 48.980469 C 165.800781 49.691406 165.90625 50.402344 166.046875 51.105469 C 166.183594 51.804688 166.359375 52.5 166.566406 53.1875 C 166.773438 53.871094 167.015625 54.546875 167.289062 55.207031 C 167.5625 55.867188 167.871094 56.515625 168.207031 57.148438 C 168.546875 57.78125 168.914062 58.394531 169.3125 58.988281 C 169.710938 59.585938 170.136719 60.160156 170.589844 60.714844 C 171.042969 61.265625 171.527344 61.796875 172.03125 62.304688 C 172.539062 62.808594 173.070312 63.292969 173.621094 63.746094 C 174.175781 64.199219 174.75 64.625 175.347656 65.023438 C 175.941406 65.421875 176.554688 65.789062 177.1875 66.128906 C 177.820312 66.464844 178.46875 66.773438 179.128906 67.046875 C 179.789062 67.320312 180.464844 67.5625 181.148438 67.769531 C 181.835938 67.976562 182.53125 68.152344 183.230469 68.289062 C 183.933594 68.429688 184.644531 68.535156 185.355469 68.605469 C 186.070312 68.675781 186.785156 68.710938 187.5 68.710938 C 188.214844 68.710938 188.929688 68.675781 189.644531 68.605469 C 190.355469 68.535156 191.066406 68.429688 191.769531 68.289062 C 192.46875 68.152344 193.164062 67.976562 193.851562 67.769531 C 194.535156 67.5625 195.210938 67.320312 195.871094 67.046875 C 196.53125 66.773438 197.179688 66.464844 197.8125 66.128906 C 198.445312 65.789062 199.058594 65.421875 199.652344 65.023438 C 200.25 64.625 200.824219 64.199219 201.378906 63.746094 C 201.929688 63.292969 202.460938 62.808594 202.96875 62.304688 C 203.472656 61.796875 203.957031 61.265625 204.410156 60.714844 C 204.863281 60.160156 205.289062 59.585938 205.6875 58.988281 C 206.085938 58.394531 206.453125 57.78125 206.792969 57.148438 C 207.128906 56.515625 207.4375 55.867188 207.710938 55.207031 C 207.984375 54.546875 208.226562 53.871094 208.433594 53.1875 C 208.640625 52.5 208.816406 51.804688 208.953125 51.105469 C 209.09375 50.402344 209.199219 49.691406 209.269531 48.980469 C 209.339844 48.265625 209.375 47.550781 209.375 46.835938 L 209.375 37.460938 L 262.5 37.460938 L 262.5 46.835938 C 262.5 47.550781 262.535156 48.265625 262.605469 48.980469 C 262.675781 49.691406 262.78125 50.402344 262.921875 51.105469 C 263.058594 51.804688 263.234375 52.5 263.441406 53.1875 C 263.648438 53.871094 263.890625 54.546875 264.164062 55.207031 C 264.4375 55.867188 264.746094 56.515625 265.082031 57.148438 C 265.421875 57.78125 265.789062 58.394531 266.1875 58.988281 C 266.585938 59.585938 267.011719 60.160156 267.464844 60.714844 C 267.917969 61.265625 268.402344 61.796875 268.90625 62.304688 C 269.414062 62.808594 269.945312 63.292969 270.496094 63.746094 C 271.050781 64.199219 271.625 64.625 272.222656 65.023438 C 272.816406 65.421875 273.429688 65.789062 274.0625 66.128906 C 274.695312 66.464844 275.34375 66.773438 276.003906 67.046875 C 276.664062 67.320312 277.339844 67.5625 278.023438 67.769531 C 278.710938 67.976562 279.40625 68.152344 280.105469 68.289062 C 280.808594 68.429688 281.519531 68.535156 282.230469 68.605469 C 282.945312 68.675781 283.660156 68.710938 284.375 68.710938 C 285.089844 68.710938 285.804688 68.675781 286.519531 68.605469 C 287.230469 68.535156 287.941406 68.429688 288.640625 68.289062 C 289.34375 68.152344 290.039062 67.976562 290.726562 67.769531 C 291.410156 67.5625 292.085938 67.320312 292.746094 67.046875 C 293.40625 66.773438 294.054688 66.464844 294.6875 66.128906 C 295.320312 65.789062 295.933594 65.421875 296.527344 65.023438 C 297.125 64.625 297.699219 64.199219 298.253906 63.746094 C 298.804688 63.292969 299.335938 62.808594 299.84375 62.304688 C 300.347656 61.796875 300.832031 61.265625 301.285156 60.714844 C 301.738281 60.160156 302.164062 59.585938 302.5625 58.988281 C 302.960938 58.394531 303.328125 57.78125 303.667969 57.148438 C 304.003906 56.515625 304.3125 55.867188 304.585938 55.207031 C 304.859375 54.546875 305.101562 53.871094 305.308594 53.1875 C 305.515625 52.5 305.691406 51.804688 305.828125 51.105469 C 305.96875 50.402344 306.074219 49.691406 306.144531 48.980469 C 306.214844 48.265625 306.25 47.550781 306.25 46.835938 L 306.25 37.460938 L 325 37.460938 C 325.613281 37.460938 326.226562 37.492188 326.835938 37.550781 C 327.449219 37.613281 328.054688 37.703125 328.65625 37.820312 C 329.261719 37.941406 329.855469 38.089844 330.441406 38.269531 C 331.03125 38.445312 331.609375 38.652344 332.175781 38.886719 C 332.742188 39.125 333.296875 39.386719 333.839844 39.675781 C 334.378906 39.964844 334.90625 40.28125 335.417969 40.621094 C 335.925781 40.960938 336.421875 41.328125 336.894531 41.71875 C 337.371094 42.105469 337.824219 42.519531 338.257812 42.953125 C 338.691406 43.386719 339.105469 43.839844 339.492188 44.316406 C 339.882812 44.789062 340.25 45.285156 340.589844 45.792969 C 340.929688 46.304688 341.246094 46.832031 341.535156 47.371094 C 341.824219 47.914062 342.085938 48.46875 342.324219 49.035156 C 342.558594 49.601562 342.765625 50.179688 342.941406 50.769531 C 343.121094 51.355469 343.269531 51.949219 343.390625 52.554688 C 343.507812 53.15625 343.597656 53.761719 343.660156 54.375 C 343.71875 54.984375 343.75 55.597656 343.75 56.210938 L 343.75 99.960938 Z M 287.5 299.960938 C 287.5 299.347656 287.53125 298.734375 287.589844 298.125 C 287.652344 297.511719 287.742188 296.90625 287.859375 296.304688 C 287.980469 295.699219 288.128906 295.105469 288.308594 294.519531 C 288.484375 293.929688 288.691406 293.351562 288.925781 292.785156 C 289.164062 292.21875 289.425781 291.664062 289.714844 291.121094 C 290.003906 290.582031 290.320312 290.054688 290.660156 289.542969 C 291 289.035156 291.367188 288.539062 291.757812 288.066406 C 292.144531 287.589844 292.558594 287.136719 292.992188 286.703125 C 293.425781 286.269531 293.878906 285.855469 294.355469 285.46875 C 294.828125 285.078125 295.324219 284.710938 295.832031 284.371094 C 296.34375 284.03125 296.871094 283.714844 297.410156 283.425781 C 297.953125 283.136719 298.507812 282.875 299.074219 282.636719 C 299.640625 282.402344 300.21875 282.195312 300.808594 282.019531 C 301.394531 281.839844 301.988281 281.691406 302.59375 281.570312 C 303.195312 281.453125 303.800781 281.363281 304.414062 281.300781 C 305.023438 281.242188 305.636719 281.210938 306.25 281.210938 L 334.921875 281.210938 L 287.5 328.640625 Z M 325 362.460938 L 50 362.460938 C 49.375 362.460938 48.75 362.425781 48.128906 362.363281 C 47.507812 362.300781 46.890625 362.207031 46.277344 362.082031 C 45.664062 361.957031 45.058594 361.800781 44.464844 361.613281 C 43.867188 361.429688 43.28125 361.214844 42.703125 360.96875 C 42.128906 360.726562 41.566406 360.453125 41.019531 360.152344 C 40.46875 359.855469 39.9375 359.527344 39.421875 359.175781 C 38.90625 358.820312 38.40625 358.441406 37.929688 358.039062 C 37.453125 357.636719 36.996094 357.210938 36.558594 356.761719 C 36.125 356.316406 35.710938 355.847656 35.320312 355.355469 C 34.933594 354.867188 34.570312 354.359375 34.230469 353.832031 C 33.894531 353.308594 33.582031 352.765625 33.296875 352.210938 C 33.011719 351.652344 32.757812 351.082031 32.53125 350.5 C 32.304688 349.917969 32.105469 349.324219 31.9375 348.722656 C 31.769531 348.121094 31.628906 347.511719 31.523438 346.894531 C 31.414062 346.28125 31.339844 345.660156 31.292969 345.035156 C 31.246094 344.414062 31.234375 343.789062 31.25 343.164062 C 33.933594 345.222656 36.875 346.804688 40.074219 347.902344 C 43.273438 349 46.5625 349.558594 49.945312 349.578125 L 270.8125 349.960938 C 272.875 349.960938 274.914062 349.761719 276.9375 349.359375 C 278.957031 348.957031 280.921875 348.363281 282.828125 347.578125 C 284.734375 346.789062 286.542969 345.824219 288.257812 344.683594 C 289.972656 343.542969 291.5625 342.242188 293.023438 340.789062 L 343.75 290.0625 L 343.75 343.710938 C 343.75 344.324219 343.71875 344.9375 343.660156 345.546875 C 343.597656 346.160156 343.507812 346.765625 343.390625 347.367188 C 343.269531 347.972656 343.121094 348.566406 342.941406 349.152344 C 342.765625 349.742188 342.558594 350.320312 342.324219 350.886719 C 342.085938 351.453125 341.824219 352.007812 341.535156 352.550781 C 341.246094 353.089844 340.929688 353.617188 340.589844 354.128906 C 340.25 354.636719 339.882812 355.132812 339.492188 355.605469 C 339.105469 356.082031 338.691406 356.535156 338.257812 356.96875 C 337.824219 357.402344 337.371094 357.816406 336.894531 358.203125 C 336.421875 358.59375 335.925781 358.960938 335.417969 359.300781 C 334.90625 359.640625 334.378906 359.957031 333.839844 360.246094 C 333.296875 360.535156 332.742188 360.796875 332.175781 361.035156 C 331.609375 361.269531 331.03125 361.476562 330.441406 361.652344 C 329.855469 361.832031 329.261719 361.980469 328.65625 362.101562 C 328.054688 362.21875 327.449219 362.308594 326.835938 362.371094 C 326.226562 362.429688 325.613281 362.460938 325 362.460938 Z M 325 362.460938 " fill-opacity="1" fill-rule="nonzero"/></g><g clip-path="url(#id2)"><path fill="#35568a" d="M 31.25 274.960938 C 31.25 275.371094 31.210938 275.777344 31.128906 276.179688 C 31.050781 276.582031 30.929688 276.972656 30.773438 277.351562 C 30.617188 277.730469 30.425781 278.09375 30.195312 278.433594 C 29.96875 278.773438 29.710938 279.089844 29.417969 279.378906 C 29.128906 279.671875 28.8125 279.929688 28.472656 280.15625 C 28.132812 280.386719 27.769531 280.578125 27.390625 280.734375 C 27.011719 280.890625 26.621094 281.011719 26.21875 281.089844 C 25.816406 281.171875 25.410156 281.210938 25 281.210938 C 24.589844 281.210938 24.183594 281.171875 23.78125 281.089844 C 23.378906 281.011719 22.988281 280.890625 22.609375 280.734375 C 22.230469 280.578125 21.867188 280.386719 21.527344 280.15625 C 21.1875 279.929688 20.871094 279.671875 20.582031 279.378906 C 20.289062 279.089844 20.03125 278.773438 19.804688 278.433594 C 19.574219 278.09375 19.382812 277.730469 19.226562 277.351562 C 19.070312 276.972656 18.949219 276.582031 18.871094 276.179688 C 18.789062 275.777344 18.75 275.371094 18.75 274.960938 C 18.75 274.550781 18.789062 274.144531 18.871094 273.742188 C 18.949219 273.339844 19.070312 272.949219 19.226562 272.570312 C 19.382812 272.191406 19.574219 271.828125 19.804688 271.488281 C 20.03125 271.148438 20.289062 270.832031 20.582031 270.542969 C 20.871094 270.25 21.1875 269.992188 21.527344 269.765625 C 21.867188 269.535156 22.230469 269.34375 22.609375 269.1875 C 22.988281 269.03125 23.378906 268.910156 23.78125 268.832031 C 24.183594 268.75 24.589844 268.710938 25 268.710938 C 25.410156 268.710938 25.816406 268.75 26.21875 268.832031 C 26.621094 268.910156 27.011719 269.03125 27.390625 269.1875 C 27.769531 269.34375 28.132812 269.535156 28.472656 269.765625 C 28.8125 269.992188 29.128906 270.25 29.417969 270.542969 C 29.710938 270.832031 29.96875 271.148438 30.195312 271.488281 C 30.425781 271.828125 30.617188 272.191406 30.773438 272.570312 C 30.929688 272.949219 31.050781 273.339844 31.128906 273.742188 C 31.210938 274.144531 31.25 274.550781 31.25 274.960938 Z M 31.25 274.960938 " fill-opacity="1" fill-rule="nonzero"/></g></svg>