<svg xmlns="http://www.w3.org/2000/svg" xmlns:xlink="http://www.w3.org/1999/xlink" width="500" zoomAndPan="magnify" viewBox="0 0 375 374.999991" height="500" preserveAspectRatio="xMidYMid meet" version="1.0"><rect x="-37.5" width="450" fill="#ffffff" y="-37.499999" height="449.999989" fill-opacity="1"/><rect x="-37.5" width="450" fill="#ffffff" y="-37.499999" height="449.999989" fill-opacity="1"/><rect x="-37.5" width="450" fill="#ffffff" y="-37.499999" height="449.999989" fill-opacity="1"/><path fill="#35568a" d="M 49.804688 76.171875 L 229.980469 76.171875 C 233.203125 76.171875 235.839844 73.535156 235.839844 70.3125 C 235.839844 67.089844 233.203125 64.453125 229.980469 64.453125 L 49.804688 64.453125 C 46.582031 64.453125 43.945312 67.089844 43.945312 70.3125 C 43.945312 73.535156 46.582031 76.171875 49.804688 76.171875 Z M 49.804688 76.171875 " fill-opacity="1" fill-rule="nonzero"/><path fill="#35568a" d="M 237.304688 128.90625 C 237.304688 125.683594 234.667969 123.046875 231.445312 123.046875 L 51.269531 123.046875 C 48.046875 123.046875 45.410156 125.683594 45.410156 128.90625 C 45.410156 132.128906 48.046875 134.765625 51.269531 134.765625 L 231.445312 134.765625 C 234.667969 134.765625 237.304688 132.128906 237.304688 128.90625 Z M 237.304688 128.90625 " fill-opacity="1" fill-rule="nonzero"/><path fill="#35568a" d="M 45.410156 304.6875 C 45.410156 307.910156 48.046875 310.546875 51.269531 310.546875 L 186.914062 310.546875 C 183.984375 306.738281 181.347656 302.929688 179.003906 298.828125 L 51.269531 298.828125 C 48.046875 298.828125 45.410156 301.464844 45.410156 304.6875 Z M 45.410156 304.6875 " fill-opacity="1" fill-rule="nonzero"/><path fill="#35568a" d="M 164.0625 240.234375 L 51.269531 240.234375 C 48.046875 240.234375 45.410156 242.871094 45.410156 246.09375 C 45.410156 249.316406 48.046875 251.953125 51.269531 251.953125 L 164.355469 251.953125 C 164.0625 249.023438 164.0625 246.09375 164.0625 243.164062 C 164.0625 242.285156 164.0625 241.113281 164.0625 240.234375 Z M 164.0625 240.234375 " fill-opacity="1" fill-rule="nonzero"/><path fill="#35568a" d="M 182.8125 181.640625 L 51.269531 181.640625 C 48.046875 181.640625 45.410156 184.277344 45.410156 187.5 C 45.410156 190.722656 48.046875 193.359375 51.269531 193.359375 L 175.78125 193.359375 C 177.832031 189.257812 180.175781 185.449219 182.8125 181.640625 Z M 182.8125 181.640625 " fill-opacity="1" fill-rule="nonzero"/><path fill="#35568a" d="M 23.4375 375 L 257.8125 375 C 269.824219 375 279.785156 365.917969 280.957031 354.492188 C 279.199219 354.492188 277.148438 354.492188 275.390625 354.492188 C 273.339844 354.492188 271.289062 354.492188 269.238281 354.199219 C 268.066406 359.472656 263.378906 363.28125 257.8125 363.28125 L 23.4375 363.28125 C 16.992188 363.28125 11.71875 358.007812 11.71875 351.5625 L 11.71875 23.4375 C 11.71875 16.992188 16.992188 11.71875 23.4375 11.71875 L 257.8125 11.71875 C 264.257812 11.71875 269.53125 16.992188 269.53125 23.4375 L 269.53125 132.128906 C 271.582031 132.128906 273.339844 131.835938 275.390625 131.835938 C 277.441406 131.835938 279.199219 131.835938 281.25 132.128906 L 281.25 23.4375 C 281.25 10.546875 270.703125 0 257.8125 0 L 23.4375 0 C 10.546875 0 0 10.546875 0 23.4375 L 0 351.5625 C 0 364.453125 10.546875 375 23.4375 375 Z M 23.4375 375 " fill-opacity="1" fill-rule="nonzero"/><path fill="#35568a" d="M 275.390625 143.554688 C 220.605469 143.554688 175.78125 188.378906 175.78125 243.164062 C 175.78125 297.949219 220.605469 342.773438 275.390625 342.773438 C 330.175781 342.773438 375 297.949219 375 243.164062 C 375 188.378906 330.175781 143.554688 275.390625 143.554688 Z M 275.390625 331.054688 C 227.050781 331.054688 187.5 291.503906 187.5 243.164062 C 187.5 194.824219 227.050781 155.273438 275.390625 155.273438 C 323.730469 155.273438 363.28125 194.824219 363.28125 243.164062 C 363.28125 291.503906 323.730469 331.054688 275.390625 331.054688 Z M 275.390625 331.054688 " fill-opacity="1" fill-rule="nonzero"/><path fill="#35568a" d="M 305.566406 183.691406 L 303.515625 182.8125 C 293.554688 177.832031 281.25 181.933594 276.269531 191.894531 L 240.820312 261.621094 C 240.820312 261.621094 240.820312 261.621094 240.820312 261.914062 C 240.820312 262.207031 240.527344 262.207031 240.527344 262.5 C 240.527344 262.792969 240.527344 262.792969 240.234375 263.085938 C 240.234375 263.378906 240.234375 263.378906 240.234375 263.671875 C 240.234375 263.964844 240.234375 263.964844 240.234375 264.257812 C 240.234375 264.257812 240.234375 264.550781 240.234375 264.550781 L 240.527344 298.828125 C 240.527344 301.171875 241.699219 302.929688 243.75 304.101562 C 245.800781 304.980469 248.144531 304.980469 249.902344 303.515625 L 278.027344 283.007812 C 278.320312 282.714844 278.613281 282.714844 278.613281 282.421875 C 278.613281 282.421875 278.613281 282.421875 278.90625 282.128906 C 279.199219 281.835938 279.492188 281.25 279.785156 280.957031 L 314.941406 211.523438 C 317.578125 206.542969 317.871094 200.976562 316.113281 195.703125 C 314.355469 190.429688 310.546875 186.035156 305.566406 183.691406 Z M 251.953125 287.402344 L 251.953125 273.925781 L 263.085938 279.492188 Z M 271.875 270.410156 L 254.003906 261.621094 L 278.027344 214.160156 L 295.898438 222.949219 Z M 304.394531 206.25 L 301.171875 212.695312 L 283.300781 203.90625 L 286.523438 197.460938 C 288.574219 193.066406 293.847656 191.308594 298.242188 193.652344 L 300.292969 194.53125 C 304.6875 196.289062 306.738281 201.855469 304.394531 206.25 Z M 304.394531 206.25 " fill-opacity="1" fill-rule="nonzero"/></svg>