<svg xmlns="http://www.w3.org/2000/svg" xmlns:xlink="http://www.w3.org/1999/xlink" width="500" zoomAndPan="magnify" viewBox="0 0 375 374.999991" height="500" preserveAspectRatio="xMidYMid meet" version="1.0"><rect x="-37.5" width="450" fill="#ffffff" y="-37.499999" height="449.999989" fill-opacity="1"/><rect x="-37.5" width="450" fill="#ffffff" y="-37.499999" height="449.999989" fill-opacity="1"/><rect x="-37.5" width="450" fill="#ffffff" y="-37.499999" height="449.999989" fill-opacity="1"/><path fill="#35568a" d="M 187.214844 122.484375 L 120.5 122.484375 L 120.5 55.597656 C 119.402344 55.59375 118.308594 55.617188 117.214844 55.667969 C 116.121094 55.722656 115.027344 55.796875 113.9375 55.902344 C 112.847656 56.007812 111.761719 56.140625 110.679688 56.296875 C 109.59375 56.457031 108.515625 56.640625 107.441406 56.851562 C 106.367188 57.0625 105.296875 57.300781 104.234375 57.5625 C 103.171875 57.828125 102.113281 58.117188 101.066406 58.429688 C 100.015625 58.746094 98.976562 59.085938 97.945312 59.453125 C 96.910156 59.820312 95.890625 60.210938 94.875 60.628906 C 93.863281 61.046875 92.863281 61.488281 91.871094 61.953125 C 90.878906 62.417969 89.898438 62.910156 88.933594 63.421875 C 87.964844 63.9375 87.011719 64.476562 86.070312 65.035156 C 85.128906 65.597656 84.203125 66.179688 83.292969 66.789062 C 82.378906 67.394531 81.484375 68.023438 80.601562 68.671875 C 79.722656 69.324219 78.855469 69.996094 78.007812 70.6875 C 77.160156 71.382812 76.328125 72.09375 75.515625 72.828125 C 74.703125 73.5625 73.910156 74.316406 73.132812 75.089844 C 72.355469 75.859375 71.601562 76.652344 70.863281 77.460938 C 70.125 78.273438 69.410156 79.101562 68.710938 79.945312 C 68.015625 80.789062 67.339844 81.652344 66.6875 82.53125 C 66.03125 83.410156 65.398438 84.300781 64.789062 85.210938 C 64.179688 86.121094 63.589844 87.046875 63.027344 87.984375 C 62.460938 88.921875 61.917969 89.875 61.402344 90.839844 C 60.882812 91.804688 60.390625 92.78125 59.917969 93.769531 C 59.449219 94.757812 59.003906 95.757812 58.582031 96.769531 C 58.160156 97.78125 57.765625 98.800781 57.394531 99.832031 C 57.023438 100.863281 56.679688 101.902344 56.359375 102.949219 C 56.039062 103.996094 55.746094 105.050781 55.476562 106.113281 C 55.207031 107.175781 54.964844 108.242188 54.75 109.316406 C 54.535156 110.390625 54.347656 111.46875 54.183594 112.550781 C 54.019531 113.636719 53.882812 114.722656 53.777344 115.8125 C 53.667969 116.902344 53.582031 117.992188 53.527344 119.085938 C 53.472656 120.179688 53.445312 121.277344 53.441406 122.371094 C 53.441406 123.464844 53.464844 124.5625 53.515625 125.65625 C 53.570312 126.75 53.648438 127.839844 53.753906 128.929688 C 53.859375 130.019531 53.992188 131.109375 54.148438 132.191406 C 54.308594 133.277344 54.496094 134.355469 54.707031 135.429688 C 54.917969 136.503906 55.15625 137.574219 55.421875 138.636719 C 55.683594 139.699219 55.976562 140.753906 56.292969 141.800781 C 56.609375 142.851562 56.949219 143.890625 57.316406 144.921875 C 57.683594 145.953125 58.078125 146.976562 58.496094 147.988281 C 58.914062 149.003906 59.355469 150.003906 59.820312 150.996094 C 60.289062 151.984375 60.78125 152.964844 61.292969 153.929688 C 61.808594 154.898438 62.347656 155.851562 62.910156 156.789062 C 63.472656 157.730469 64.054688 158.65625 64.664062 159.570312 C 65.269531 160.480469 65.898438 161.375 66.550781 162.257812 C 67.203125 163.136719 67.875 164 68.566406 164.847656 C 69.261719 165.695312 69.976562 166.527344 70.710938 167.339844 C 71.445312 168.152344 72.199219 168.945312 72.972656 169.722656 C 73.746094 170.496094 74.539062 171.253906 75.347656 171.988281 C 76.160156 172.726562 76.988281 173.441406 77.832031 174.136719 C 78.679688 174.832031 79.542969 175.507812 80.421875 176.160156 C 81.300781 176.816406 82.195312 177.445312 83.105469 178.054688 C 84.011719 178.664062 84.9375 179.253906 85.875 179.816406 C 86.816406 180.378906 87.765625 180.921875 88.734375 181.4375 C 89.699219 181.957031 90.675781 182.449219 91.664062 182.917969 C 92.65625 183.386719 93.65625 183.832031 94.667969 184.253906 C 95.679688 184.671875 96.699219 185.070312 97.730469 185.4375 C 98.761719 185.808594 99.800781 186.152344 100.847656 186.472656 C 101.894531 186.792969 102.949219 187.085938 104.011719 187.351562 C 105.074219 187.617188 106.144531 187.859375 107.21875 188.074219 C 108.292969 188.289062 109.371094 188.476562 110.453125 188.640625 C 111.535156 188.800781 112.621094 188.9375 113.710938 189.042969 C 114.800781 189.152344 115.894531 189.234375 116.988281 189.289062 C 118.082031 189.34375 119.175781 189.371094 120.273438 189.371094 C 121.367188 189.371094 122.460938 189.347656 123.554688 189.292969 C 124.648438 189.242188 125.742188 189.160156 126.832031 189.054688 C 127.921875 188.949219 129.007812 188.816406 130.09375 188.65625 C 131.175781 188.496094 132.253906 188.308594 133.328125 188.097656 C 134.402344 187.882812 135.472656 187.644531 136.535156 187.378906 C 137.597656 187.113281 138.652344 186.824219 139.703125 186.503906 C 140.75 186.1875 141.789062 185.84375 142.820312 185.476562 C 143.851562 185.109375 144.875 184.714844 145.886719 184.296875 C 146.898438 183.878906 147.898438 183.433594 148.890625 182.96875 C 149.878906 182.5 150.859375 182.007812 151.824219 181.492188 C 152.792969 180.976562 153.746094 180.4375 154.683594 179.875 C 155.625 179.3125 156.550781 178.726562 157.460938 178.117188 C 158.371094 177.511719 159.265625 176.882812 160.148438 176.230469 C 161.027344 175.578125 161.890625 174.902344 162.738281 174.210938 C 163.585938 173.515625 164.414062 172.800781 165.226562 172.066406 C 166.039062 171.328125 166.832031 170.574219 167.605469 169.800781 C 168.378906 169.027344 169.136719 168.234375 169.871094 167.421875 C 170.605469 166.613281 171.324219 165.78125 172.019531 164.9375 C 172.714844 164.089844 173.386719 163.226562 174.039062 162.347656 C 174.691406 161.46875 175.324219 160.574219 175.933594 159.664062 C 176.539062 158.753906 177.125 157.828125 177.691406 156.886719 C 178.253906 155.949219 178.792969 154.996094 179.308594 154.03125 C 179.828125 153.066406 180.320312 152.085938 180.789062 151.097656 C 181.257812 150.105469 181.699219 149.105469 182.121094 148.09375 C 182.539062 147.082031 182.933594 146.0625 183.300781 145.03125 C 183.671875 144 184.015625 142.960938 184.332031 141.910156 C 184.652344 140.863281 184.945312 139.808594 185.210938 138.746094 C 185.476562 137.683594 185.714844 136.613281 185.929688 135.539062 C 186.144531 134.464844 186.332031 133.386719 186.492188 132.304688 C 186.652344 131.222656 186.785156 130.132812 186.894531 129.042969 C 187 127.953125 187.082031 126.863281 187.136719 125.769531 C 187.191406 124.675781 187.214844 123.582031 187.214844 122.484375 Z M 187.214844 122.484375 " fill-opacity="1" fill-rule="nonzero"/><path fill="#35568a" d="M 141.832031 34.324219 L 141.832031 101.152344 L 208.660156 101.152344 C 208.660156 100.058594 208.632812 98.96875 208.578125 97.875 C 208.523438 96.78125 208.441406 95.691406 208.335938 94.605469 C 208.226562 93.515625 208.089844 92.433594 207.929688 91.351562 C 207.769531 90.269531 207.582031 89.191406 207.367188 88.121094 C 207.152344 87.046875 206.914062 85.980469 206.648438 84.921875 C 206.378906 83.859375 206.089844 82.804688 205.769531 81.761719 C 205.453125 80.714844 205.109375 79.675781 204.742188 78.648438 C 204.371094 77.617188 203.976562 76.597656 203.558594 75.585938 C 203.140625 74.578125 202.695312 73.578125 202.230469 72.589844 C 201.761719 71.601562 201.269531 70.625 200.753906 69.660156 C 200.238281 68.695312 199.699219 67.746094 199.136719 66.808594 C 198.574219 65.871094 197.988281 64.945312 197.378906 64.039062 C 196.773438 63.128906 196.144531 62.234375 195.492188 61.355469 C 194.839844 60.480469 194.167969 59.617188 193.472656 58.773438 C 192.78125 57.925781 192.066406 57.097656 191.332031 56.289062 C 190.597656 55.480469 189.84375 54.6875 189.070312 53.914062 C 188.296875 53.140625 187.503906 52.386719 186.695312 51.652344 C 185.886719 50.917969 185.058594 50.203125 184.210938 49.511719 C 183.367188 48.816406 182.503906 48.144531 181.628906 47.492188 C 180.75 46.839844 179.855469 46.210938 178.945312 45.601562 C 178.039062 44.996094 177.113281 44.410156 176.175781 43.847656 C 175.238281 43.285156 174.289062 42.746094 173.324219 42.230469 C 172.359375 41.714844 171.382812 41.222656 170.394531 40.753906 C 169.40625 40.289062 168.40625 39.84375 167.398438 39.425781 C 166.386719 39.007812 165.367188 38.613281 164.335938 38.242188 C 163.308594 37.875 162.269531 37.53125 161.222656 37.214844 C 160.179688 36.894531 159.125 36.601562 158.0625 36.335938 C 157.003906 36.070312 155.9375 35.832031 154.863281 35.617188 C 153.792969 35.402344 152.714844 35.214844 151.632812 35.054688 C 150.550781 34.890625 149.46875 34.757812 148.378906 34.648438 C 147.292969 34.542969 146.199219 34.460938 145.109375 34.40625 C 144.015625 34.351562 142.925781 34.324219 141.832031 34.324219 Z M 141.832031 34.324219 " fill-opacity="1" fill-rule="nonzero"/><path fill="#35568a" d="M 34.039062 227.554688 L 62.292969 227.554688 L 62.292969 340.675781 L 34.039062 340.675781 Z M 34.039062 227.554688 " fill-opacity="1" fill-rule="nonzero"/><path fill="#35568a" d="M 92.472656 266.925781 L 120.726562 266.925781 L 120.726562 340.675781 L 92.472656 340.675781 Z M 92.472656 266.925781 " fill-opacity="1" fill-rule="nonzero"/><path fill="#35568a" d="M 150.90625 294.609375 L 179.160156 294.609375 L 179.160156 340.675781 L 150.90625 340.675781 Z M 150.90625 294.609375 " fill-opacity="1" fill-rule="nonzero"/><path fill="#35568a" d="M 248.941406 169.460938 C 248.261719 169.371094 247.578125 169.371094 246.898438 169.460938 C 246.527344 169.503906 246.164062 169.585938 245.804688 169.703125 C 245.449219 169.820312 245.109375 169.96875 244.78125 170.152344 C 244.457031 170.335938 244.148438 170.550781 243.867188 170.796875 C 243.582031 171.039062 243.324219 171.308594 243.089844 171.605469 C 242.859375 171.898438 242.660156 172.214844 242.492188 172.546875 C 242.320312 172.882812 242.1875 173.230469 242.085938 173.589844 C 241.984375 173.953125 241.917969 174.320312 241.890625 174.691406 C 241.859375 175.066406 241.867188 175.441406 241.914062 175.8125 C 241.957031 176.183594 242.039062 176.546875 242.15625 176.90625 C 242.273438 177.261719 242.421875 177.601562 242.605469 177.929688 C 242.789062 178.257812 243.003906 178.5625 243.246094 178.847656 C 243.488281 179.132812 243.757812 179.390625 244.054688 179.621094 C 244.347656 179.855469 244.664062 180.054688 244.996094 180.226562 C 245.332031 180.394531 245.679688 180.53125 246.039062 180.632812 C 246.398438 180.734375 246.769531 180.796875 247.140625 180.828125 C 247.515625 180.855469 247.886719 180.851562 248.261719 180.804688 L 249.054688 180.804688 C 249.425781 180.804688 249.796875 180.769531 250.160156 180.695312 C 250.527344 180.625 250.882812 180.515625 251.226562 180.375 C 251.570312 180.230469 251.898438 180.054688 252.207031 179.847656 C 252.515625 179.640625 252.800781 179.40625 253.066406 179.144531 C 253.328125 178.878906 253.566406 178.59375 253.773438 178.285156 C 253.976562 177.972656 254.152344 177.648438 254.296875 177.304688 C 254.4375 176.960938 254.546875 176.605469 254.617188 176.238281 C 254.691406 175.875 254.726562 175.503906 254.726562 175.132812 C 254.726562 174.761719 254.691406 174.390625 254.617188 174.027344 C 254.546875 173.660156 254.4375 173.304688 254.296875 172.960938 C 254.152344 172.617188 253.976562 172.289062 253.773438 171.980469 C 253.566406 171.671875 253.328125 171.382812 253.066406 171.121094 C 252.800781 170.855469 252.515625 170.621094 252.207031 170.414062 C 251.898438 170.207031 251.570312 170.035156 251.226562 169.890625 C 250.882812 169.75 250.527344 169.640625 250.160156 169.566406 C 249.796875 169.496094 249.425781 169.460938 249.054688 169.460938 Z M 248.941406 176.265625 Z M 248.941406 176.265625 " fill-opacity="1" fill-rule="nonzero"/><path fill="#35568a" d="M 227.441406 174.679688 C 225.519531 175.65625 223.675781 176.761719 221.90625 177.996094 C 220.140625 179.226562 218.464844 180.578125 216.882812 182.039062 C 215.300781 183.503906 213.828125 185.070312 212.460938 186.738281 C 211.097656 188.402344 209.851562 190.15625 208.726562 191.996094 C 207.605469 193.835938 206.613281 195.742188 205.75 197.71875 C 204.890625 199.695312 204.171875 201.71875 203.589844 203.796875 C 203.007812 205.871094 202.570312 207.976562 202.28125 210.109375 C 201.992188 212.246094 201.847656 214.390625 201.851562 216.546875 C 201.851562 216.917969 201.890625 217.289062 201.960938 217.652344 C 202.035156 218.019531 202.140625 218.375 202.285156 218.71875 C 202.425781 219.0625 202.601562 219.390625 202.808594 219.699219 C 203.015625 220.007812 203.25 220.296875 203.515625 220.558594 C 203.777344 220.820312 204.066406 221.058594 204.375 221.265625 C 204.683594 221.472656 205.011719 221.644531 205.355469 221.789062 C 205.699219 221.929688 206.054688 222.039062 206.417969 222.109375 C 206.785156 222.183594 207.152344 222.21875 207.527344 222.21875 C 207.898438 222.21875 208.269531 222.183594 208.632812 222.109375 C 209 222.039062 209.351562 221.929688 209.699219 221.789062 C 210.042969 221.644531 210.367188 221.472656 210.679688 221.265625 C 210.988281 221.058594 211.273438 220.820312 211.539062 220.558594 C 211.800781 220.296875 212.035156 220.007812 212.242188 219.699219 C 212.449219 219.390625 212.625 219.0625 212.769531 218.71875 C 212.910156 218.375 213.019531 218.019531 213.089844 217.652344 C 213.164062 217.289062 213.199219 216.917969 213.199219 216.546875 C 213.195312 214.910156 213.300781 213.285156 213.519531 211.664062 C 213.738281 210.042969 214.070312 208.445312 214.507812 206.871094 C 214.949219 205.296875 215.496094 203.757812 216.148438 202.257812 C 216.800781 200.757812 217.550781 199.3125 218.40625 197.914062 C 219.257812 196.519531 220.203125 195.191406 221.238281 193.925781 C 222.273438 192.660156 223.390625 191.472656 224.589844 190.359375 C 225.792969 189.25 227.0625 188.226562 228.402344 187.292969 C 229.746094 186.355469 231.144531 185.519531 232.601562 184.777344 C 232.933594 184.605469 233.246094 184.402344 233.535156 184.171875 C 233.828125 183.9375 234.09375 183.679688 234.332031 183.394531 C 234.574219 183.109375 234.785156 182.800781 234.964844 182.476562 C 235.144531 182.148438 235.292969 181.808594 235.402344 181.453125 C 235.515625 181.097656 235.59375 180.734375 235.636719 180.363281 C 235.675781 179.992188 235.683594 179.621094 235.652344 179.25 C 235.621094 178.878906 235.550781 178.511719 235.449219 178.15625 C 235.34375 177.796875 235.207031 177.453125 235.035156 177.121094 C 234.867188 176.789062 234.664062 176.476562 234.429688 176.1875 C 234.199219 175.894531 233.941406 175.628906 233.65625 175.386719 C 233.371094 175.148438 233.0625 174.9375 232.738281 174.757812 C 232.410156 174.574219 232.070312 174.429688 231.714844 174.316406 C 231.359375 174.203125 230.996094 174.125 230.625 174.082031 C 230.253906 174.039062 229.882812 174.035156 229.511719 174.066406 C 229.140625 174.097656 228.777344 174.164062 228.417969 174.265625 C 228.058594 174.371094 227.714844 174.507812 227.382812 174.679688 Z M 227.441406 174.679688 " fill-opacity="1" fill-rule="nonzero"/><path fill="#35568a" d="M 368.757812 307.488281 L 333.300781 272.085938 C 333.636719 271.421875 333.917969 270.730469 334.144531 270.019531 C 334.367188 269.308594 334.539062 268.582031 334.648438 267.84375 C 334.761719 267.105469 334.816406 266.363281 334.808594 265.617188 C 334.804688 264.871094 334.742188 264.128906 334.621094 263.390625 C 334.5 262.65625 334.320312 261.929688 334.085938 261.222656 C 333.851562 260.515625 333.5625 259.828125 333.21875 259.164062 C 332.875 258.5 332.480469 257.871094 332.039062 257.269531 C 331.597656 256.667969 331.109375 256.101562 330.578125 255.578125 L 319.230469 244.230469 C 322.710938 235.4375 324.453125 226.300781 324.453125 216.832031 C 324.464844 214.628906 324.378906 212.433594 324.199219 210.242188 C 324.019531 208.046875 323.742188 205.867188 323.371094 203.699219 C 323 201.527344 322.535156 199.378906 321.976562 197.25 C 321.417969 195.125 320.765625 193.023438 320.023438 190.953125 C 319.28125 188.878906 318.453125 186.84375 317.53125 184.847656 C 316.609375 182.847656 315.605469 180.894531 314.511719 178.980469 C 313.421875 177.070312 312.25 175.210938 310.996094 173.402344 C 309.742188 171.59375 308.410156 169.84375 307.003906 168.152344 C 305.597656 166.460938 304.121094 164.832031 302.570312 163.269531 C 301.023438 161.707031 299.40625 160.214844 297.726562 158.792969 C 296.046875 157.371094 294.308594 156.027344 292.511719 154.757812 C 290.714844 153.488281 288.867188 152.296875 286.964844 151.191406 C 285.066406 150.082031 283.117188 149.058594 281.128906 148.121094 C 279.136719 147.183594 277.109375 146.332031 275.046875 145.574219 C 272.980469 144.8125 270.886719 144.144531 268.761719 143.566406 C 266.640625 142.988281 264.496094 142.503906 262.328125 142.113281 L 262.328125 22.976562 C 262.328125 22.234375 262.292969 21.492188 262.21875 20.753906 C 262.148438 20.011719 262.039062 19.277344 261.894531 18.550781 C 261.75 17.820312 261.570312 17.101562 261.351562 16.390625 C 261.136719 15.679688 260.886719 14.980469 260.601562 14.292969 C 260.316406 13.605469 260 12.933594 259.648438 12.277344 C 259.300781 11.625 258.917969 10.988281 258.503906 10.367188 C 258.09375 9.75 257.648438 9.15625 257.179688 8.582031 C 256.707031 8.003906 256.207031 7.457031 255.683594 6.929688 C 255.15625 6.40625 254.609375 5.90625 254.03125 5.433594 C 253.457031 4.964844 252.863281 4.519531 252.246094 4.109375 C 251.625 3.695312 250.988281 3.3125 250.335938 2.964844 C 249.679688 2.613281 249.007812 2.296875 248.320312 2.011719 C 247.632812 1.726562 246.933594 1.476562 246.222656 1.261719 C 245.511719 1.046875 244.792969 0.863281 244.0625 0.71875 C 243.335938 0.574219 242.601562 0.464844 241.859375 0.394531 C 241.121094 0.320312 240.378906 0.285156 239.636719 0.285156 L 22.691406 0.285156 C 21.949219 0.285156 21.207031 0.320312 20.46875 0.394531 C 19.730469 0.464844 18.996094 0.574219 18.265625 0.71875 C 17.535156 0.863281 16.816406 1.046875 16.105469 1.261719 C 15.394531 1.476562 14.695312 1.726562 14.007812 2.011719 C 13.320312 2.296875 12.652344 2.613281 11.996094 2.964844 C 11.339844 3.3125 10.703125 3.695312 10.085938 4.109375 C 9.46875 4.519531 8.871094 4.964844 8.296875 5.433594 C 7.722656 5.90625 7.171875 6.40625 6.648438 6.929688 C 6.121094 7.457031 5.621094 8.003906 5.152344 8.582031 C 4.679688 9.15625 4.238281 9.75 3.824219 10.367188 C 3.410156 10.988281 3.03125 11.625 2.679688 12.277344 C 2.328125 12.933594 2.011719 13.605469 1.726562 14.292969 C 1.441406 14.980469 1.191406 15.679688 0.976562 16.390625 C 0.761719 17.101562 0.582031 17.820312 0.4375 18.550781 C 0.292969 19.277344 0.183594 20.011719 0.109375 20.753906 C 0.0351562 21.492188 0 22.234375 0 22.976562 L 0 352.023438 C 0 352.765625 0.0351562 353.507812 0.109375 354.246094 C 0.183594 354.988281 0.292969 355.722656 0.4375 356.449219 C 0.582031 357.179688 0.761719 357.898438 0.976562 358.609375 C 1.191406 359.320312 1.441406 360.019531 1.726562 360.707031 C 2.011719 361.394531 2.328125 362.066406 2.679688 362.722656 C 3.03125 363.375 3.410156 364.011719 3.824219 364.632812 C 4.238281 365.25 4.679688 365.84375 5.152344 366.417969 C 5.621094 366.992188 6.121094 367.542969 6.648438 368.070312 C 7.171875 368.59375 7.722656 369.09375 8.296875 369.566406 C 8.871094 370.035156 9.46875 370.480469 10.085938 370.890625 C 10.703125 371.304688 11.339844 371.6875 11.996094 372.035156 C 12.652344 372.386719 13.320312 372.703125 14.007812 372.988281 C 14.695312 373.273438 15.394531 373.523438 16.105469 373.738281 C 16.816406 373.953125 17.535156 374.136719 18.265625 374.28125 C 18.996094 374.425781 19.730469 374.535156 20.46875 374.605469 C 21.207031 374.679688 21.949219 374.714844 22.691406 374.714844 L 239.636719 374.714844 C 240.378906 374.714844 241.121094 374.679688 241.859375 374.605469 C 242.601562 374.535156 243.335938 374.425781 244.0625 374.28125 C 244.792969 374.136719 245.511719 373.953125 246.222656 373.738281 C 246.933594 373.523438 247.632812 373.273438 248.320312 372.988281 C 249.007812 372.703125 249.679688 372.386719 250.335938 372.035156 C 250.988281 371.6875 251.625 371.304688 252.246094 370.890625 C 252.863281 370.480469 253.457031 370.035156 254.03125 369.566406 C 254.609375 369.09375 255.15625 368.59375 255.683594 368.070312 C 256.207031 367.542969 256.707031 366.992188 257.179688 366.417969 C 257.648438 365.84375 258.09375 365.25 258.503906 364.632812 C 258.917969 364.011719 259.300781 363.375 259.648438 362.722656 C 260 362.066406 260.316406 361.394531 260.601562 360.707031 C 260.886719 360.019531 261.136719 359.320312 261.351562 358.609375 C 261.570312 357.898438 261.75 357.179688 261.894531 356.449219 C 262.039062 355.722656 262.148438 354.988281 262.21875 354.246094 C 262.292969 353.507812 262.328125 352.765625 262.328125 352.023438 L 262.328125 290.753906 C 267.128906 289.875 271.796875 288.550781 276.34375 286.78125 L 287.6875 298.128906 C 289.039062 299.472656 290.59375 300.503906 292.351562 301.234375 C 294.109375 301.960938 295.941406 302.324219 297.84375 302.324219 C 300.179688 302.308594 302.375 301.738281 304.425781 300.625 L 339.824219 336.082031 C 340.792969 336.871094 341.824219 337.5625 342.917969 338.160156 C 344.015625 338.757812 345.15625 339.25 346.339844 339.636719 C 347.527344 340.019531 348.738281 340.296875 349.976562 340.457031 C 351.210938 340.621094 352.453125 340.667969 353.699219 340.601562 C 354.945312 340.535156 356.171875 340.355469 357.386719 340.0625 C 358.597656 339.769531 359.773438 339.367188 360.910156 338.855469 C 362.046875 338.34375 363.128906 337.734375 364.15625 337.023438 C 365.179688 336.3125 366.132812 335.515625 367.007812 334.628906 C 367.886719 333.742188 368.675781 332.78125 369.375 331.75 C 370.078125 330.71875 370.675781 329.628906 371.175781 328.488281 C 371.675781 327.34375 372.066406 326.164062 372.347656 324.949219 C 372.628906 323.734375 372.796875 322.503906 372.851562 321.257812 C 372.90625 320.011719 372.84375 318.773438 372.667969 317.535156 C 372.496094 316.300781 372.207031 315.09375 371.808594 313.910156 C 371.410156 312.730469 370.910156 311.59375 370.300781 310.503906 C 369.691406 309.414062 368.988281 308.390625 368.191406 307.433594 Z M 250.984375 352.023438 C 250.984375 352.769531 250.910156 353.507812 250.765625 354.238281 C 250.621094 354.96875 250.40625 355.675781 250.121094 356.367188 C 249.835938 357.054688 249.484375 357.707031 249.070312 358.328125 C 248.65625 358.945312 248.1875 359.519531 247.660156 360.046875 C 247.132812 360.574219 246.558594 361.042969 245.941406 361.457031 C 245.320312 361.871094 244.667969 362.222656 243.980469 362.507812 C 243.289062 362.792969 242.582031 363.007812 241.851562 363.152344 C 241.121094 363.296875 240.382812 363.371094 239.636719 363.371094 L 22.691406 363.371094 C 21.949219 363.371094 21.210938 363.296875 20.480469 363.152344 C 19.75 363.007812 19.039062 362.792969 18.351562 362.507812 C 17.664062 362.222656 17.007812 361.871094 16.390625 361.457031 C 15.769531 361.042969 15.195312 360.574219 14.667969 360.046875 C 14.144531 359.519531 13.671875 358.945312 13.257812 358.328125 C 12.84375 357.707031 12.496094 357.054688 12.210938 356.367188 C 11.925781 355.675781 11.710938 354.96875 11.566406 354.238281 C 11.417969 353.507812 11.347656 352.769531 11.347656 352.023438 L 11.347656 22.976562 C 11.347656 22.230469 11.417969 21.492188 11.566406 20.761719 C 11.710938 20.03125 11.925781 19.324219 12.210938 18.632812 C 12.496094 17.945312 12.84375 17.292969 13.257812 16.671875 C 13.671875 16.054688 14.144531 15.480469 14.667969 14.953125 C 15.195312 14.425781 15.769531 13.957031 16.390625 13.542969 C 17.007812 13.128906 17.664062 12.777344 18.351562 12.492188 C 19.039062 12.207031 19.75 11.992188 20.480469 11.847656 C 21.210938 11.703125 21.949219 11.628906 22.691406 11.628906 L 239.636719 11.628906 C 240.382812 11.628906 241.121094 11.703125 241.851562 11.847656 C 242.582031 11.992188 243.289062 12.207031 243.980469 12.492188 C 244.667969 12.777344 245.320312 13.128906 245.941406 13.542969 C 246.558594 13.957031 247.132812 14.425781 247.660156 14.953125 C 248.1875 15.480469 248.65625 16.054688 249.070312 16.671875 C 249.484375 17.292969 249.835938 17.945312 250.121094 18.632812 C 250.40625 19.324219 250.621094 20.03125 250.765625 20.761719 C 250.910156 21.492188 250.984375 22.230469 250.984375 22.976562 L 250.984375 141.207031 L 248.941406 141.207031 C 247.707031 141.207031 246.472656 141.238281 245.238281 141.296875 C 244.003906 141.359375 242.773438 141.449219 241.546875 141.570312 C 240.316406 141.691406 239.089844 141.84375 237.871094 142.023438 C 236.648438 142.203125 235.433594 142.414062 234.21875 142.65625 C 233.007812 142.898438 231.804688 143.167969 230.605469 143.46875 C 229.410156 143.769531 228.21875 144.097656 227.039062 144.457031 C 225.855469 144.8125 224.683594 145.203125 223.519531 145.617188 C 222.359375 146.035156 221.207031 146.476562 220.066406 146.949219 C 218.925781 147.421875 217.796875 147.921875 216.679688 148.449219 C 215.5625 148.980469 214.460938 149.535156 213.371094 150.117188 C 212.285156 150.699219 211.210938 151.304688 210.148438 151.941406 C 209.089844 152.578125 208.046875 153.238281 207.019531 153.921875 C 205.996094 154.609375 204.984375 155.320312 203.992188 156.054688 C 203 156.789062 202.027344 157.550781 201.074219 158.332031 C 200.117188 159.117188 199.183594 159.921875 198.269531 160.753906 C 197.355469 161.582031 196.460938 162.433594 195.585938 163.304688 C 194.714844 164.179688 193.863281 165.074219 193.035156 165.988281 C 192.203125 166.902344 191.398438 167.839844 190.613281 168.792969 C 189.832031 169.746094 189.070312 170.71875 188.335938 171.710938 C 187.601562 172.703125 186.890625 173.714844 186.203125 174.742188 C 185.515625 175.765625 184.855469 176.808594 184.222656 177.871094 C 183.585938 178.929688 182.980469 180.003906 182.398438 181.089844 C 181.816406 182.179688 181.257812 183.285156 180.730469 184.398438 C 180.203125 185.515625 179.703125 186.644531 179.230469 187.785156 C 178.757812 188.925781 178.3125 190.078125 177.898438 191.242188 C 177.480469 192.402344 177.09375 193.574219 176.734375 194.757812 C 176.378906 195.9375 176.046875 197.128906 175.75 198.328125 C 175.449219 199.523438 175.179688 200.730469 174.9375 201.941406 C 174.695312 203.152344 174.484375 204.367188 174.304688 205.589844 C 174.121094 206.808594 173.972656 208.035156 173.851562 209.265625 C 173.730469 210.492188 173.636719 211.726562 173.578125 212.957031 C 173.515625 214.191406 173.488281 215.425781 173.488281 216.660156 C 173.488281 217.894531 173.515625 219.128906 173.578125 220.363281 C 173.636719 221.597656 173.730469 222.828125 173.851562 224.054688 C 173.972656 225.285156 174.121094 226.511719 174.304688 227.730469 C 174.484375 228.953125 174.695312 230.167969 174.9375 231.378906 C 175.179688 232.589844 175.449219 233.796875 175.75 234.992188 C 176.046875 236.191406 176.378906 237.382812 176.734375 238.5625 C 177.09375 239.746094 177.480469 240.917969 177.898438 242.078125 C 178.3125 243.242188 178.757812 244.394531 179.230469 245.535156 C 179.703125 246.675781 180.203125 247.804688 180.730469 248.921875 C 181.257812 250.039062 181.816406 251.140625 182.398438 252.230469 C 182.980469 253.316406 183.585938 254.390625 184.222656 255.453125 C 184.855469 256.511719 185.515625 257.554688 186.203125 258.582031 C 186.890625 259.605469 187.601562 260.617188 188.335938 261.609375 C 189.070312 262.601562 189.832031 263.574219 190.613281 264.527344 C 191.398438 265.480469 192.203125 266.417969 193.035156 267.332031 C 193.863281 268.246094 194.714844 269.140625 195.585938 270.015625 C 196.460938 270.886719 197.355469 271.738281 198.269531 272.566406 C 199.183594 273.398438 200.117188 274.203125 201.074219 274.988281 C 202.027344 275.769531 203 276.53125 203.992188 277.265625 C 204.984375 278 205.996094 278.710938 207.019531 279.398438 C 208.046875 280.082031 209.089844 280.746094 210.148438 281.378906 C 211.210938 282.015625 212.285156 282.621094 213.371094 283.203125 C 214.460938 283.785156 215.5625 284.34375 216.679688 284.871094 C 217.796875 285.398438 218.925781 285.898438 220.066406 286.371094 C 221.207031 286.84375 222.359375 287.289062 223.519531 287.703125 C 224.683594 288.121094 225.855469 288.507812 227.039062 288.863281 C 228.21875 289.222656 229.410156 289.554688 230.605469 289.851562 C 231.804688 290.152344 233.007812 290.421875 234.21875 290.664062 C 235.433594 290.90625 236.648438 291.117188 237.871094 291.296875 C 239.089844 291.480469 240.316406 291.628906 241.546875 291.75 C 242.773438 291.871094 244.003906 291.960938 245.238281 292.023438 C 246.472656 292.082031 247.707031 292.113281 248.941406 292.113281 L 250.984375 292.113281 Z M 248.941406 280.652344 C 247.890625 280.652344 246.84375 280.628906 245.796875 280.578125 C 244.746094 280.527344 243.703125 280.449219 242.65625 280.34375 C 241.613281 280.242188 240.574219 280.113281 239.535156 279.960938 C 238.496094 279.804688 237.464844 279.628906 236.433594 279.421875 C 235.40625 279.21875 234.382812 278.988281 233.363281 278.734375 C 232.347656 278.476562 231.335938 278.199219 230.332031 277.894531 C 229.328125 277.589844 228.332031 277.261719 227.34375 276.90625 C 226.355469 276.554688 225.378906 276.175781 224.40625 275.773438 C 223.4375 275.371094 222.480469 274.949219 221.53125 274.5 C 220.582031 274.050781 219.644531 273.578125 218.722656 273.085938 C 217.796875 272.589844 216.882812 272.074219 215.984375 271.535156 C 215.082031 270.996094 214.195312 270.433594 213.324219 269.851562 C 212.453125 269.265625 211.59375 268.664062 210.753906 268.039062 C 209.910156 267.414062 209.082031 266.769531 208.273438 266.101562 C 207.460938 265.4375 206.667969 264.75 205.890625 264.046875 C 205.113281 263.34375 204.351562 262.621094 203.609375 261.878906 C 202.867188 261.136719 202.144531 260.375 201.441406 259.597656 C 200.734375 258.820312 200.050781 258.027344 199.386719 257.214844 C 198.71875 256.40625 198.074219 255.578125 197.449219 254.734375 C 196.824219 253.894531 196.21875 253.035156 195.636719 252.164062 C 195.054688 251.289062 194.492188 250.40625 193.953125 249.503906 C 193.414062 248.605469 192.898438 247.691406 192.402344 246.765625 C 191.910156 245.839844 191.4375 244.90625 190.988281 243.957031 C 190.539062 243.007812 190.113281 242.050781 189.714844 241.078125 C 189.3125 240.109375 188.933594 239.132812 188.582031 238.144531 C 188.226562 237.15625 187.898438 236.160156 187.59375 235.15625 C 187.289062 234.152344 187.011719 233.140625 186.753906 232.125 C 186.5 231.105469 186.269531 230.082031 186.066406 229.054688 C 185.859375 228.023438 185.679688 226.992188 185.527344 225.953125 C 185.375 224.914062 185.246094 223.875 185.140625 222.832031 C 185.039062 221.785156 184.960938 220.742188 184.910156 219.691406 C 184.859375 218.644531 184.832031 217.597656 184.832031 216.546875 C 184.832031 215.496094 184.859375 214.449219 184.910156 213.402344 C 184.960938 212.351562 185.039062 211.308594 185.140625 210.261719 C 185.246094 209.21875 185.375 208.179688 185.527344 207.140625 C 185.679688 206.101562 185.859375 205.070312 186.066406 204.039062 C 186.269531 203.011719 186.5 201.988281 186.753906 200.96875 C 187.011719 199.953125 187.289062 198.941406 187.59375 197.9375 C 187.898438 196.933594 188.226562 195.9375 188.582031 194.949219 C 188.933594 193.960938 189.3125 192.984375 189.714844 192.015625 C 190.113281 191.042969 190.539062 190.085938 190.988281 189.136719 C 191.4375 188.1875 191.910156 187.253906 192.402344 186.328125 C 192.898438 185.402344 193.414062 184.488281 193.953125 183.589844 C 194.492188 182.6875 195.054688 181.804688 195.636719 180.929688 C 196.21875 180.058594 196.824219 179.199219 197.449219 178.359375 C 198.074219 177.515625 198.71875 176.6875 199.386719 175.878906 C 200.050781 175.066406 200.734375 174.273438 201.441406 173.496094 C 202.144531 172.71875 202.867188 171.957031 203.609375 171.214844 C 204.351562 170.472656 205.113281 169.75 205.890625 169.046875 C 206.667969 168.34375 207.460938 167.65625 208.273438 166.992188 C 209.082031 166.324219 209.910156 165.679688 210.753906 165.054688 C 211.59375 164.429688 212.453125 163.828125 213.324219 163.242188 C 214.195312 162.660156 215.082031 162.097656 215.984375 161.558594 C 216.882812 161.019531 217.796875 160.503906 218.722656 160.007812 C 219.644531 159.515625 220.582031 159.042969 221.53125 158.59375 C 222.480469 158.144531 223.4375 157.722656 224.40625 157.320312 C 225.378906 156.917969 226.355469 156.539062 227.34375 156.1875 C 228.332031 155.832031 229.328125 155.503906 230.332031 155.199219 C 231.335938 154.894531 232.347656 154.617188 233.363281 154.359375 C 234.382812 154.105469 235.40625 153.875 236.433594 153.671875 C 237.464844 153.464844 238.496094 153.289062 239.535156 153.132812 C 240.574219 152.980469 241.613281 152.851562 242.65625 152.75 C 243.703125 152.644531 244.746094 152.566406 245.796875 152.515625 C 246.84375 152.464844 247.890625 152.441406 248.941406 152.441406 C 249.988281 152.441406 251.039062 152.464844 252.085938 152.515625 C 253.132812 152.566406 254.179688 152.644531 255.226562 152.75 C 256.269531 152.851562 257.308594 152.980469 258.347656 153.132812 C 259.386719 153.289062 260.417969 153.464844 261.449219 153.671875 C 262.476562 153.875 263.5 154.105469 264.519531 154.359375 C 265.535156 154.617188 266.546875 154.894531 267.550781 155.199219 C 268.554688 155.503906 269.550781 155.832031 270.539062 156.1875 C 271.527344 156.539062 272.503906 156.917969 273.472656 157.320312 C 274.441406 157.722656 275.402344 158.144531 276.351562 158.59375 C 277.300781 159.042969 278.234375 159.515625 279.160156 160.007812 C 280.085938 160.503906 281 161.019531 281.898438 161.558594 C 282.796875 162.097656 283.683594 162.660156 284.558594 163.242188 C 285.429688 163.828125 286.285156 164.429688 287.128906 165.054688 C 287.972656 165.679688 288.800781 166.324219 289.609375 166.992188 C 290.421875 167.65625 291.214844 168.34375 291.992188 169.046875 C 292.769531 169.75 293.53125 170.472656 294.273438 171.214844 C 295.015625 171.957031 295.738281 172.71875 296.441406 173.496094 C 297.144531 174.273438 297.832031 175.066406 298.496094 175.878906 C 299.164062 176.6875 299.808594 177.515625 300.433594 178.359375 C 301.058594 179.199219 301.660156 180.058594 302.246094 180.929688 C 302.828125 181.804688 303.386719 182.6875 303.929688 183.589844 C 304.46875 184.488281 304.984375 185.402344 305.480469 186.328125 C 305.972656 187.253906 306.445312 188.1875 306.894531 189.136719 C 307.34375 190.085938 307.765625 191.042969 308.167969 192.015625 C 308.570312 192.984375 308.949219 193.960938 309.300781 194.949219 C 309.65625 195.9375 309.984375 196.933594 310.289062 197.9375 C 310.59375 198.941406 310.871094 199.953125 311.128906 200.96875 C 311.382812 201.988281 311.613281 203.011719 311.816406 204.039062 C 312.019531 205.070312 312.199219 206.101562 312.355469 207.140625 C 312.507812 208.179688 312.636719 209.21875 312.738281 210.261719 C 312.84375 211.308594 312.917969 212.351562 312.972656 213.402344 C 313.023438 214.449219 313.046875 215.496094 313.046875 216.546875 C 313.046875 217.597656 313.019531 218.644531 312.96875 219.691406 C 312.917969 220.738281 312.839844 221.785156 312.734375 222.828125 C 312.632812 223.871094 312.5 224.914062 312.347656 225.949219 C 312.191406 226.988281 312.011719 228.019531 311.808594 229.050781 C 311.601562 230.078125 311.371094 231.101562 311.117188 232.117188 C 310.859375 233.136719 310.582031 234.144531 310.273438 235.148438 C 309.96875 236.152344 309.640625 237.148438 309.285156 238.136719 C 308.933594 239.125 308.554688 240.101562 308.152344 241.070312 C 307.75 242.039062 307.328125 243 306.878906 243.945312 C 306.429688 244.894531 305.957031 245.832031 305.460938 246.753906 C 304.96875 247.679688 304.449219 248.59375 303.910156 249.492188 C 303.371094 250.390625 302.808594 251.277344 302.226562 252.148438 C 301.644531 253.023438 301.039062 253.878906 300.414062 254.722656 C 299.789062 255.5625 299.144531 256.390625 298.480469 257.199219 C 297.8125 258.011719 297.128906 258.804688 296.425781 259.582031 C 295.71875 260.359375 294.996094 261.121094 294.253906 261.859375 C 293.511719 262.601562 292.753906 263.324219 291.976562 264.03125 C 291.199219 264.734375 290.40625 265.417969 289.59375 266.085938 C 288.785156 266.75 287.957031 267.394531 287.117188 268.019531 C 286.273438 268.644531 285.414062 269.25 284.542969 269.832031 C 283.671875 270.414062 282.785156 270.976562 281.886719 271.515625 C 280.988281 272.054688 280.074219 272.574219 279.148438 273.066406 C 278.226562 273.5625 277.289062 274.035156 276.339844 274.484375 C 275.390625 274.933594 274.433594 275.359375 273.464844 275.757812 C 272.496094 276.160156 271.519531 276.539062 270.53125 276.894531 C 269.542969 277.246094 268.546875 277.574219 267.542969 277.882812 C 266.539062 278.1875 265.53125 278.464844 264.511719 278.722656 C 263.496094 278.976562 262.472656 279.207031 261.445312 279.414062 C 260.414062 279.617188 259.382812 279.796875 258.34375 279.953125 C 257.308594 280.109375 256.265625 280.238281 255.222656 280.339844 C 254.179688 280.445312 253.132812 280.523438 252.085938 280.574219 C 251.039062 280.625 249.988281 280.652344 248.941406 280.652344 Z M 360.476562 328.082031 C 360.066406 328.496094 359.617188 328.863281 359.132812 329.1875 C 358.648438 329.511719 358.140625 329.785156 357.601562 330.007812 C 357.0625 330.230469 356.507812 330.402344 355.9375 330.515625 C 355.367188 330.628906 354.789062 330.683594 354.207031 330.683594 C 353.625 330.683594 353.046875 330.628906 352.476562 330.515625 C 351.90625 330.402344 351.351562 330.230469 350.8125 330.007812 C 350.277344 329.785156 349.765625 329.511719 349.28125 329.1875 C 348.796875 328.863281 348.351562 328.496094 347.9375 328.082031 L 313.046875 293.191406 L 325.585938 280.597656 L 360.476562 315.542969 C 360.890625 315.957031 361.257812 316.402344 361.582031 316.886719 C 361.90625 317.371094 362.179688 317.882812 362.402344 318.417969 C 362.625 318.957031 362.796875 319.511719 362.910156 320.082031 C 363.023438 320.65625 363.078125 321.230469 363.078125 321.8125 C 363.078125 322.394531 363.023438 322.972656 362.910156 323.542969 C 362.796875 324.113281 362.625 324.667969 362.402344 325.207031 C 362.179688 325.746094 361.90625 326.257812 361.582031 326.738281 C 361.257812 327.222656 360.890625 327.671875 360.476562 328.082031 Z M 360.476562 328.082031 " fill-opacity="1" fill-rule="nonzero"/></svg>