<svg xmlns="http://www.w3.org/2000/svg" xmlns:xlink="http://www.w3.org/1999/xlink" width="500" zoomAndPan="magnify" viewBox="0 0 375 374.999991" height="500" preserveAspectRatio="xMidYMid meet" version="1.0"><defs><clipPath id="id1"><path d="M 2 23.195312 L 375 23.195312 L 375 337.445312 L 2 337.445312 Z M 2 23.195312 " clip-rule="nonzero"/></clipPath></defs><rect x="-37.5" width="450" fill="#ffffff" y="-37.499999" height="449.999989" fill-opacity="1"/><rect x="-37.5" width="450" fill="#ffffff" y="-37.499999" height="449.999989" fill-opacity="1"/><rect x="-37.5" width="450" fill="#ffffff" y="-37.499999" height="449.999989" fill-opacity="1"/><g clip-path="url(#id1)"><path fill="#35568a" d="M 371.15625 66.726562 L 341.4375 66.726562 L 341.4375 29.363281 C 341.4375 27.71875 340.691406 26.175781 339.40625 25.140625 C 338.132812 24.125 336.472656 23.726562 334.855469 24.09375 L 189.75 56.726562 L 44.644531 24.09375 C 43.050781 23.726562 41.375 24.125 40.09375 25.140625 C 38.808594 26.164062 38.0625 27.71875 38.0625 29.363281 L 38.0625 66.726562 L 8.34375 66.726562 C 5.363281 66.726562 2.949219 69.144531 2.949219 72.125 L 2.949219 306.839844 C 2.949219 309.8125 5.363281 312.242188 8.34375 312.242188 L 154.050781 312.242188 C 156.964844 312.242188 159.554688 314.097656 160.492188 316.839844 C 164.886719 329.679688 176.90625 337.769531 189.78125 337.769531 C 193.09375 337.769531 196.453125 337.242188 199.753906 336.128906 C 208.742188 333.050781 215.929688 325.835938 218.996094 316.851562 C 219.933594 314.109375 222.523438 312.25 225.449219 312.25 L 371.15625 312.25 C 374.136719 312.25 376.550781 309.820312 376.550781 306.851562 L 376.550781 72.125 C 376.550781 69.144531 374.144531 66.726562 371.15625 66.726562 Z M 195.144531 66.585938 L 330.644531 36.109375 L 330.644531 259.734375 L 195.144531 290.222656 Z M 48.855469 36.109375 L 184.355469 66.585938 L 184.355469 290.222656 L 48.855469 259.746094 Z M 365.761719 301.441406 L 225.449219 301.441406 C 217.9375 301.441406 211.234375 306.203125 208.785156 313.363281 C 206.777344 319.207031 202.105469 323.914062 196.257812 325.890625 C 185.757812 329.476562 174.308594 323.859375 170.714844 313.34375 C 168.265625 306.214844 161.574219 301.441406 154.0625 301.441406 L 13.738281 301.441406 L 13.738281 77.523438 L 38.0625 77.523438 L 38.0625 264.066406 C 38.0625 266.570312 39.8125 268.773438 42.273438 269.316406 L 188.5625 302.21875 C 188.960938 302.328125 189.351562 302.371094 189.738281 302.371094 C 189.738281 302.371094 189.738281 302.371094 189.75 302.371094 C 190.128906 302.371094 190.527344 302.328125 190.90625 302.21875 L 337.207031 269.316406 C 339.667969 268.765625 341.414062 266.570312 341.414062 264.066406 L 341.414062 77.523438 L 365.738281 77.523438 L 365.738281 301.441406 Z M 365.761719 301.441406 " fill-opacity="1" fill-rule="nonzero"/></g><path fill="#35568a" d="M 76.425781 106.046875 L 154.40625 123.59375 C 154.808594 123.679688 155.207031 123.722656 155.59375 123.722656 C 158.066406 123.722656 160.289062 122.015625 160.851562 119.511719 C 161.507812 116.597656 159.675781 113.710938 156.769531 113.054688 L 78.78125 95.503906 C 75.855469 94.847656 72.984375 96.683594 72.328125 99.585938 C 71.699219 102.503906 73.523438 105.386719 76.425781 106.046875 Z M 76.425781 106.046875 " fill-opacity="1" fill-rule="nonzero"/><path fill="#35568a" d="M 76.425781 142.460938 L 154.40625 160.007812 C 154.808594 160.09375 155.207031 160.136719 155.59375 160.136719 C 158.066406 160.136719 160.289062 158.429688 160.851562 155.925781 C 161.507812 153.011719 159.675781 150.125 156.769531 149.46875 L 78.78125 131.917969 C 75.855469 131.273438 72.984375 133.085938 72.328125 136 C 71.679688 138.917969 73.523438 141.800781 76.425781 142.460938 Z M 76.425781 142.460938 " fill-opacity="1" fill-rule="nonzero"/><path fill="#35568a" d="M 76.425781 178.875 L 154.40625 196.410156 C 154.808594 196.496094 155.207031 196.550781 155.59375 196.550781 C 158.066406 196.550781 160.289062 194.84375 160.851562 192.339844 C 161.507812 189.414062 159.675781 186.539062 156.769531 185.871094 L 78.78125 168.332031 C 75.855469 167.652344 72.984375 169.511719 72.328125 172.414062 C 71.699219 175.332031 73.523438 178.214844 76.425781 178.875 Z M 76.425781 178.875 " fill-opacity="1" fill-rule="nonzero"/><path fill="#35568a" d="M 76.425781 213.277344 L 154.40625 230.816406 C 154.808594 230.902344 155.207031 230.957031 155.59375 230.957031 C 158.066406 230.957031 160.289062 229.25 160.851562 226.734375 C 161.507812 223.820312 159.675781 220.933594 156.769531 220.277344 L 78.78125 202.726562 C 75.855469 202.058594 72.984375 203.90625 72.328125 206.820312 C 71.699219 209.726562 73.523438 212.621094 76.425781 213.277344 Z M 76.425781 213.277344 " fill-opacity="1" fill-rule="nonzero"/><path fill="#35568a" d="M 300.699219 95.503906 L 222.695312 113.054688 C 219.792969 113.710938 217.96875 116.597656 218.617188 119.511719 C 219.179688 122.015625 221.414062 123.722656 223.863281 123.722656 C 224.261719 123.722656 224.660156 123.679688 225.058594 123.59375 L 303.0625 106.046875 C 305.964844 105.386719 307.789062 102.503906 307.140625 99.585938 C 306.492188 96.683594 303.644531 94.859375 300.699219 95.503906 Z M 300.699219 95.503906 " fill-opacity="1" fill-rule="nonzero"/><path fill="#35568a" d="M 300.699219 131.917969 L 222.695312 149.46875 C 219.792969 150.125 217.96875 153.011719 218.617188 155.925781 C 219.179688 158.429688 221.414062 160.136719 223.863281 160.136719 C 224.261719 160.136719 224.660156 160.09375 225.058594 160.007812 L 303.050781 142.460938 C 305.953125 141.800781 307.777344 138.917969 307.128906 136 C 306.492188 133.085938 303.644531 131.273438 300.699219 131.917969 Z M 300.699219 131.917969 " fill-opacity="1" fill-rule="nonzero"/><path fill="#35568a" d="M 300.699219 168.332031 L 222.695312 185.871094 C 219.792969 186.539062 217.96875 189.414062 218.617188 192.339844 C 219.179688 194.835938 221.414062 196.550781 223.863281 196.550781 C 224.261719 196.550781 224.660156 196.496094 225.058594 196.410156 L 303.050781 178.875 C 305.953125 178.214844 307.777344 175.332031 307.128906 172.414062 C 306.492188 169.511719 303.644531 167.652344 300.699219 168.332031 Z M 300.699219 168.332031 " fill-opacity="1" fill-rule="nonzero"/><path fill="#35568a" d="M 261.707031 211.507812 L 222.71875 220.289062 C 219.804688 220.945312 217.992188 223.828125 218.640625 226.746094 C 219.199219 229.25 221.433594 230.96875 223.894531 230.96875 C 224.273438 230.96875 224.671875 230.914062 225.070312 230.828125 L 264.0625 222.058594 C 266.972656 221.390625 268.789062 218.515625 268.140625 215.589844 C 267.503906 212.683594 264.632812 210.828125 261.707031 211.507812 Z M 261.707031 211.507812 " fill-opacity="1" fill-rule="nonzero"/></svg>